<?xml version="1.0" encoding="UTF-8" standalone="no"?>
<!-- Created with Inkscape (http://www.inkscape.org/) -->

<svg
   width="105mm"
   height="74mm"
   viewBox="0 0 105 74"
   version="1.1"
   id="svg1"
   inkscape:version="1.3.2 (091e20ef0f, 2023-11-25, custom)"
   sodipodi:docname="block-chain.svg"
   xmlns:inkscape="http://www.inkscape.org/namespaces/inkscape"
   xmlns:sodipodi="http://sodipodi.sourceforge.net/DTD/sodipodi-0.dtd"
   xmlns="http://www.w3.org/2000/svg"
   xmlns:svg="http://www.w3.org/2000/svg">
  <sodipodi:namedview
     id="namedview1"
     pagecolor="#505050"
     bordercolor="#eeeeee"
     borderopacity="1"
     inkscape:showpageshadow="0"
     inkscape:pageopacity="0"
     inkscape:pagecheckerboard="0"
     inkscape:deskcolor="#505050"
     inkscape:document-units="mm"
     inkscape:zoom="1.0235901"
     inkscape:cx="396.64316"
     inkscape:cy="561.25984"
     inkscape:window-width="2560"
     inkscape:window-height="1377"
     inkscape:window-x="0"
     inkscape:window-y="63"
     inkscape:window-maximized="1"
     inkscape:current-layer="layer1" />
  <defs
     id="defs1">
    <clipPath
       clipPathUnits="userSpaceOnUse"
       id="clipPath624">
      <path
         d="m 188,508.9 h 236.4 v 51.8 H 188 Z"
         clip-rule="evenodd"
         id="path624" />
    </clipPath>
    <clipPath
       clipPathUnits="userSpaceOnUse"
       id="clipPath626">
      <path
         d="m 188,508.9 h 236.4 v 51.8 H 188 Z"
         transform="matrix(1,0,0,-0.99858999,-216.80003,549.22449)"
         clip-rule="evenodd"
         id="path626" />
    </clipPath>
    <clipPath
       clipPathUnits="userSpaceOnUse"
       id="clipPath628">
      <path
         d="m 188,508.9 h 236.4 v 51.8 H 188 Z"
         clip-rule="evenodd"
         id="path628" />
    </clipPath>
    <clipPath
       clipPathUnits="userSpaceOnUse"
       id="clipPath630">
      <path
         d="m 188,508.9 h 236.4 v 51.8 H 188 Z"
         transform="matrix(1,0,0,-0.99858999,-228.80003,533.64649)"
         clip-rule="evenodd"
         id="path630" />
    </clipPath>
    <clipPath
       clipPathUnits="userSpaceOnUse"
       id="clipPath632">
      <path
         d="m 188,508.9 h 236.4 v 51.8 H 188 Z"
         clip-rule="evenodd"
         id="path632" />
    </clipPath>
    <clipPath
       clipPathUnits="userSpaceOnUse"
       id="clipPath634">
      <path
         d="m 188,508.9 h 236.4 v 51.8 H 188 Z"
         transform="matrix(1,0,0,-0.99858999,-278.60003,533.64649)"
         clip-rule="evenodd"
         id="path634" />
    </clipPath>
    <clipPath
       clipPathUnits="userSpaceOnUse"
       id="clipPath636">
      <path
         d="m 188,508.9 h 236.4 v 51.8 H 188 Z"
         clip-rule="evenodd"
         id="path636" />
    </clipPath>
    <clipPath
       clipPathUnits="userSpaceOnUse"
       id="clipPath638">
      <path
         d="m 188,508.9 h 236.4 v 51.8 H 188 Z"
         transform="matrix(1,0,0,-0.99858999,-230.00003,516.27102)"
         clip-rule="evenodd"
         id="path638" />
    </clipPath>
    <clipPath
       clipPathUnits="userSpaceOnUse"
       id="clipPath640">
      <path
         d="m 188,508.9 h 236.4 v 51.8 H 188 Z"
         clip-rule="evenodd"
         id="path640" />
    </clipPath>
    <clipPath
       clipPathUnits="userSpaceOnUse"
       id="clipPath642">
      <path
         d="m 188,508.9 h 236.4 v 51.8 H 188 Z"
         transform="matrix(1,0,0,-0.99858999,-258.80003,516.27102)"
         clip-rule="evenodd"
         id="path642" />
    </clipPath>
    <clipPath
       clipPathUnits="userSpaceOnUse"
       id="clipPath644">
      <path
         d="m 188,508.9 h 236.4 v 51.8 H 188 Z"
         clip-rule="evenodd"
         id="path644" />
    </clipPath>
    <clipPath
       clipPathUnits="userSpaceOnUse"
       id="clipPath646">
      <path
         d="m 188,508.9 h 236.4 v 51.8 H 188 Z"
         transform="matrix(1,0,0,-0.99858999,-288.80003,516.27102)"
         clip-rule="evenodd"
         id="path646" />
    </clipPath>
    <clipPath
       clipPathUnits="userSpaceOnUse"
       id="clipPath648">
      <path
         d="m 188,508.9 h 236.4 v 51.8 H 188 Z"
         clip-rule="evenodd"
         id="path648" />
    </clipPath>
    <clipPath
       clipPathUnits="userSpaceOnUse"
       id="clipPath650">
      <path
         d="m 188,508.9 h 236.4 v 51.8 H 188 Z"
         clip-rule="evenodd"
         id="path650" />
    </clipPath>
    <clipPath
       clipPathUnits="userSpaceOnUse"
       id="clipPath652">
      <path
         d="m 188,508.9 h 236.4 v 51.8 H 188 Z"
         clip-rule="evenodd"
         id="path652" />
    </clipPath>
    <clipPath
       clipPathUnits="userSpaceOnUse"
       id="clipPath654">
      <path
         d="m 188,508.9 h 236.4 v 51.8 H 188 Z"
         transform="matrix(1,0,0,-0.99858999,-332.00003,549.22449)"
         clip-rule="evenodd"
         id="path654" />
    </clipPath>
    <clipPath
       clipPathUnits="userSpaceOnUse"
       id="clipPath656">
      <path
         d="m 188,508.9 h 236.4 v 51.8 H 188 Z"
         clip-rule="evenodd"
         id="path656" />
    </clipPath>
    <clipPath
       clipPathUnits="userSpaceOnUse"
       id="clipPath658">
      <path
         d="m 188,508.9 h 236.4 v 51.8 H 188 Z"
         transform="matrix(1,0,0,-0.99858999,-343.89998,533.64649)"
         clip-rule="evenodd"
         id="path658" />
    </clipPath>
    <clipPath
       clipPathUnits="userSpaceOnUse"
       id="clipPath660">
      <path
         d="m 188,508.9 h 236.4 v 51.8 H 188 Z"
         clip-rule="evenodd"
         id="path660" />
    </clipPath>
    <clipPath
       clipPathUnits="userSpaceOnUse"
       id="clipPath662">
      <path
         d="m 188,508.9 h 236.4 v 51.8 H 188 Z"
         transform="matrix(1,0,0,-0.99858999,-393.69998,533.64649)"
         clip-rule="evenodd"
         id="path662" />
    </clipPath>
    <clipPath
       clipPathUnits="userSpaceOnUse"
       id="clipPath664">
      <path
         d="m 188,508.9 h 236.4 v 51.8 H 188 Z"
         clip-rule="evenodd"
         id="path664" />
    </clipPath>
    <clipPath
       clipPathUnits="userSpaceOnUse"
       id="clipPath666">
      <path
         d="m 188,508.9 h 236.4 v 51.8 H 188 Z"
         transform="matrix(1,0,0,-0.99858999,-345.09998,516.27102)"
         clip-rule="evenodd"
         id="path666" />
    </clipPath>
    <clipPath
       clipPathUnits="userSpaceOnUse"
       id="clipPath668">
      <path
         d="m 188,508.9 h 236.4 v 51.8 H 188 Z"
         clip-rule="evenodd"
         id="path668" />
    </clipPath>
    <clipPath
       clipPathUnits="userSpaceOnUse"
       id="clipPath670">
      <path
         d="m 188,508.9 h 236.4 v 51.8 H 188 Z"
         transform="matrix(1,0,0,-0.99858999,-373.89998,516.27102)"
         clip-rule="evenodd"
         id="path670" />
    </clipPath>
    <clipPath
       clipPathUnits="userSpaceOnUse"
       id="clipPath672">
      <path
         d="m 188,508.9 h 236.4 v 51.8 H 188 Z"
         clip-rule="evenodd"
         id="path672" />
    </clipPath>
    <clipPath
       clipPathUnits="userSpaceOnUse"
       id="clipPath674">
      <path
         d="m 188,508.9 h 236.4 v 51.8 H 188 Z"
         transform="matrix(1,0,0,-0.99858999,-403.89999,516.27102)"
         clip-rule="evenodd"
         id="path674" />
    </clipPath>
    <clipPath
       clipPathUnits="userSpaceOnUse"
       id="clipPath676">
      <path
         d="m 188,508.9 h 236.4 v 51.8 H 188 Z"
         clip-rule="evenodd"
         id="path676" />
    </clipPath>
    <clipPath
       clipPathUnits="userSpaceOnUse"
       id="clipPath678">
      <path
         d="m 188,508.9 h 236.4 v 51.8 H 188 Z"
         clip-rule="evenodd"
         id="path678" />
    </clipPath>
  </defs>
  <g
     inkscape:label="Слой 1"
     inkscape:groupmode="layer"
     id="layer1">
    <path
       id="path623"
       d="m 260,508.8 h -49 v 51.9 h 97.9 v -51.9 z"
       style="fill:#ffffff;fill-opacity:1;fill-rule:evenodd;stroke:#000000;stroke-width:1;stroke-linecap:butt;stroke-linejoin:round;stroke-miterlimit:10;stroke-dasharray:none;stroke-opacity:1"
       transform="matrix(0.35277776,0,0,-0.35277776,-57.820036,227.4032)"
       clip-path="url(#clipPath624)" />
    <path
       id="path625"
       d="M 0.52714844,9.7518555e-4 V -5.1480045 H 2.4607422 c 0.3896484,0 0.703125,0.055586 0.9375,0.1638312 0.2402344,0.1023945 0.4277344,0.2633001 0.5625,0.4797913 0.140625,0.2194167 0.2109375,0.4446846 0.2109375,0.6787291 0,0.2194167 -0.064453,0.4271313 -0.1875,0.620218 -0.1171875,0.1960123 -0.2988281,0.3510668 -0.5390625,0.4680891 0.3105469,0.093618 0.5507812,0.2515978 0.7148437,0.468089 0.1699219,0.2194168 0.2578125,0.4797913 0.2578125,0.7840492 0,0.2340445 -0.052734,0.4563868 -0.1523437,0.66702693 -0.1025391,0.21064007 -0.2314453,0.37154569 -0.3867188,0.47979129 -0.149414,0.11117115 -0.336914,0.19601229 -0.5625,0.25744898 C 3.0964844,-0.02535482 2.8240234,9.7518555e-4 2.4958984,9.7518555e-4 Z M 1.2068359,-2.9830926 h 1.1132813 c 0.3046875,0 0.5214844,-0.017553 0.65625,-0.058511 0.1699219,-0.05266 0.2988281,-0.1404267 0.3867187,-0.257449 0.084961,-0.1170223 0.1289063,-0.2633001 0.1289063,-0.4446846 0,-0.1696823 -0.043945,-0.3188857 -0.1289063,-0.4446846 C 3.2839839,-4.3200719 3.1667969,-4.4107641 3.0115234,-4.457573 2.8621094,-4.510233 2.6042969,-4.539489 2.2380859,-4.539489 h -1.03125 z m 0,2.375552 h 1.2890625 c 0.2167969,0 0.3691407,-0.005851 0.4570313,-0.0234045 0.1552734,-0.0292556 0.2841797,-0.0760645 0.3867187,-0.14042672 0.1083985,-0.0614367 0.1992188,-0.1550545 0.2695313,-0.28085348 0.070312,-0.1228734 0.1054687,-0.2691512 0.1054687,-0.4329824 0,-0.1930867 -0.052734,-0.362769 -0.1523437,-0.5031957 -0.1025391,-0.1404266 -0.2402344,-0.23697 -0.4101563,-0.2925556 -0.1728515,-0.061437 -0.421875,-0.093618 -0.75,-0.093618 H 1.2068359 Z M 5.2585937,9.7518555e-4 V -5.1480045 H 5.8914062 V 9.7518555e-4 Z M 6.6414062,-1.8596788 c 0,-0.693357 0.1933594,-1.2053294 0.5859375,-1.5329917 0.319336,-0.2808535 0.7089844,-0.4212802 1.171875,-0.4212802 0.506836,0 0.9257813,0.1696823 1.2539063,0.5031958 0.328125,0.336439 0.492187,0.8016025 0.492187,1.3925649 0,0.4856424 -0.07617,0.8630392 -0.2226558,1.13511601 -0.140625,0.27500232 -0.3515625,0.48856795 -0.6328125,0.64362246 -0.2753906,0.14627783 -0.571289,0.2223423 -0.890625,0.2223423 -0.524414,0 -0.9492187,-0.16675673 -1.2773437,-0.50319574 C 6.7996094,-0.75381843 6.6414062,-1.2336097 6.6414062,-1.8596788 Z m 0.65625,0 c 0,0.4768657 0.099609,0.8367092 0.3046875,1.07660481 0.2109375,0.23404453 0.4746094,0.35106679 0.796875,0.35106679 0.3105469,0 0.5683594,-0.11702226 0.7734375,-0.35106679 0.2109375,-0.23989561 0.3164063,-0.60851581 0.3164063,-1.10000931 0,-0.4593124 -0.1054688,-0.8074536 -0.3164063,-1.0414982 -0.2050781,-0.2398956 -0.4628906,-0.362769 -0.7734375,-0.362769 -0.3222656,0 -0.5859375,0.1228734 -0.796875,0.362769 -0.2050781,0.2340446 -0.3046875,0.5909625 -0.3046875,1.0649027 z m 6.0117188,0.4914935 0.621094,0.081916 c -0.06445,0.43005679 -0.234375,0.7664958 -0.515625,1.00639145 -0.28125,0.2428212 -0.626953,0.36276902 -1.03125,0.36276902 -0.515625,0 -0.931641,-0.16383117 -1.242188,-0.49149351 -0.304687,-0.33351346 -0.457031,-0.81330476 -0.457031,-1.43937386 0,-0.4037268 0.06445,-0.7547936 0.199219,-1.0532004 0.131836,-0.3042579 0.333984,-0.5295258 0.609375,-0.6787291 0.272461,-0.1550545 0.568359,-0.2340446 0.890625,-0.2340446 0.404297,0 0.738281,0.1053201 0.996093,0.3159601 0.257813,0.204789 0.421875,0.4914936 0.492188,0.8659648 L 13.2625,-2.538408 c -0.06445,-0.2486723 -0.169922,-0.4359079 -0.316406,-0.5617069 -0.149414,-0.1228733 -0.328125,-0.1872356 -0.539063,-0.1872356 -0.322265,0 -0.583008,0.1140967 -0.785156,0.3393646 -0.196289,0.2281934 -0.292969,0.5909624 -0.292969,1.0883071 0,0.5002701 0.09668,0.86303917 0.292969,1.08830703 0.193359,0.22819342 0.445312,0.33936457 0.75,0.33936457 0.249023,0 0.457031,-0.0731389 0.621094,-0.2223423 0.169922,-0.1550545 0.27539,-0.3920246 0.316406,-0.7138358 z M 14.586719,9.7518555e-4 V -5.1480045 h 0.632812 v 2.9372589 l 1.488281,-1.5095873 h 0.820313 l -1.417969,1.3808628 1.570313,2.34044528555 H 16.895312 L 15.664844,-1.9064877 15.219531,-1.4735054 V 9.7518555e-4 Z m 0,0"
       style="fill:#000000;fill-opacity:1;fill-rule:nonzero;stroke:none"
       aria-label="Block"
       transform="matrix(0.35277776,0,0,0.3532759,18.662194,33.375431)"
       clip-path="url(#clipPath626)" />
    <path
       id="path627"
       d="m 245.6,531.9 h -23.1 v 11.5 h 46.1 v -11.5 z"
       style="fill:#ffffff;fill-opacity:1;fill-rule:evenodd;stroke:#000000;stroke-width:1;stroke-linecap:butt;stroke-linejoin:round;stroke-miterlimit:10;stroke-dasharray:none;stroke-opacity:1"
       transform="matrix(0.35277776,0,0,-0.35277776,-57.820036,227.4032)"
       clip-path="url(#clipPath628)" />
    <path
       id="path629"
       d="M 0.55058594,-0.00136526 V -5.1503449 H 2.4958984 c 0.3427735,0 0.6035157,0.020479 0.7851563,0.058511 0.2490234,0.040958 0.4599609,0.1170223 0.6328125,0.2340445 0.1699219,0.1170223 0.3076172,0.2867046 0.4101562,0.5031958 0.1083985,0.21064 0.1640625,0.4446846 0.1640625,0.7021336 0,0.4388334 -0.140625,0.8074536 -0.421875,1.1117115 -0.28125,0.2984068 -0.7851562,0.4446846 -1.5117187,0.4446846 h -1.3125 v 2.09469854 z M 1.2419922,-2.7045796 h 1.3242187 c 0.4453125,0 0.7558594,-0.081916 0.9375,-0.2457468 0.1875,-0.1638311 0.28125,-0.3920245 0.28125,-0.6904313 0,-0.2106401 -0.055664,-0.3890991 -0.1640625,-0.5383024 C 3.5095703,-4.3341146 3.3660156,-4.4394347 3.1873047,-4.4950203 3.0759766,-4.5242758 2.8650391,-4.5418292 2.5544922,-4.5418292 h -1.3125 z m 4.0283203,2.70321434 V -3.7226733 h 0.5625 v 0.5617069 c 0.1464844,-0.2633001 0.2841797,-0.4388335 0.4101562,-0.5266002 0.1230469,-0.084841 0.2578125,-0.1287245 0.3984375,-0.1287245 0.2167969,0 0.4365235,0.070213 0.65625,0.2106401 L 7.075,-3.0205397 c -0.1582031,-0.093618 -0.3105469,-0.1404267 -0.4570313,-0.1404267 -0.140625,0 -0.2666015,0.043883 -0.375,0.1287245 -0.1113281,0.07899 -0.1875,0.1930867 -0.234375,0.3393645 -0.070312,0.2281934 -0.1054687,0.4739402 -0.1054687,0.7372403 v 1.95427184 z m 4.9570315,-1.20532934 0.65625,0.081916 c -0.102539,0.38324791 -0.292969,0.67872913 -0.574219,0.88936921 -0.275391,0.21064008 -0.6298828,0.31596012 -1.0664063,0.31596012 -0.5478515,0 -0.9814453,-0.16675673 -1.3007812,-0.50319575 C 7.6199219,-0.75615887 7.4617187,-1.2242479 7.4617187,-1.8269126 c 0,-0.6319202 0.1582032,-1.1175626 0.4804688,-1.4627783 0.328125,-0.3510668 0.75,-0.5266002 1.265625,-0.5266002 0.4980469,0 0.9052735,0.1726078 1.2187495,0.5148979 0.319336,0.3364391 0.480469,0.8133048 0.480469,1.4276717 0,0.040958 0,0.099469 0,0.1755334 H 8.1179687 c 0.023437,0.4066524 0.140625,0.71968692 0.3515625,0.93617811 0.2109375,0.21941675 0.46875,0.32766235 0.7734375,0.32766235 0.234375,0 0.4335938,-0.0585111 0.5976563,-0.1755334 0.164062,-0.12287338 0.292969,-0.32181123 0.386719,-0.59681356 z M 8.153125,-2.2247883 h 2.085937 c -0.03223,-0.310109 -0.111328,-0.5441535 -0.234375,-0.7021336 -0.2050776,-0.2398956 -0.4658198,-0.362769 -0.7851558,-0.362769 -0.290039,0 -0.5361328,0.099469 -0.7382812,0.2925556 -0.1962891,0.1960123 -0.3046875,0.4534613 -0.328125,0.772347 z m 4.561523,2.22342304 -1.417968,-3.72130804 h 0.667968 l 0.796875,2.223423 c 0.08496,0.2428212 0.166993,0.4914936 0.246094,0.74894254 0.05274,-0.19308674 0.131836,-0.42713124 0.234375,-0.70213364 l 0.820313,-2.2702319 h 0.65625 l -1.417969,3.72130804 z m 4.661133,0 V -5.1503449 h 0.679688 v 2.118103 h 2.683593 v -2.118103 h 0.679688 v 5.14897964 H 20.739062 V -2.4237262 h -2.683593 v 2.42236094 z m 7.532227,-0.45638684 c -0.234375,0.1960123 -0.462891,0.33643902 -0.679688,0.42128016 -0.210937,0.07606447 -0.442383,0.11702227 -0.691406,0.11702227 -0.407227,0 -0.723633,-0.09654337 -0.949219,-0.29255567 -0.219726,-0.20186341 -0.328125,-0.45931239 -0.328125,-0.77234695 0,-0.17845891 0.03809,-0.34229011 0.117188,-0.49149351 0.08496,-0.1550545 0.193359,-0.2750023 0.328125,-0.362769 0.140625,-0.093618 0.295898,-0.1638312 0.46875,-0.2106401 0.117187,-0.038032 0.304687,-0.070213 0.5625,-0.093618 0.506836,-0.061437 0.881836,-0.1345756 1.125,-0.2223423 0,-0.084841 0,-0.1404267 0,-0.1638312 0,-0.257449 -0.05859,-0.4388335 -0.175781,-0.5500046 -0.164063,-0.1404268 -0.407227,-0.2106401 -0.726563,-0.2106401 -0.298828,0 -0.515625,0.055586 -0.65625,0.1638311 -0.140625,0.1023945 -0.246094,0.2867046 -0.316406,0.5500047 l -0.621094,-0.093618 c 0.06152,-0.257449 0.155273,-0.4680891 0.28125,-0.6319203 0.131836,-0.1638311 0.319336,-0.2867045 0.5625,-0.3744712 0.240234,-0.093618 0.521484,-0.1404267 0.84375,-0.1404267 0.319336,0 0.577148,0.040958 0.773438,0.1170222 0.202148,0.07899 0.351562,0.1755334 0.445312,0.2925557 0.09375,0.1111712 0.158203,0.2515979 0.199219,0.4212802 0.01465,0.1111711 0.02344,0.3042579 0.02344,0.5851113 v 0.8425603 c 0,0.58511134 0.01172,0.95665703 0.03516,1.11171153 0.0293,0.15798006 0.08496,0.30425789 0.164062,0.44468461 H 25.03692 C 24.97247,-0.13301571 24.931451,-0.28514465 24.908014,-0.4577525 Z m -0.04687,-1.4159694 c -0.234375,0.093618 -0.580078,0.1755334 -1.03125,0.2457467 -0.266602,0.032181 -0.454102,0.070213 -0.5625,0.1170223 -0.102539,0.046809 -0.184571,0.1170223 -0.246094,0.2106401 -0.05566,0.087767 -0.08203,0.1872356 -0.08203,0.30425788 0,0.16383117 0.06152,0.30425789 0.1875,0.42128016 0.123047,0.11117115 0.310547,0.16383117 0.5625,0.16383117 0.240234,0 0.457031,-0.0497345 0.644531,-0.15212894 0.193359,-0.1082456 0.333984,-0.25744899 0.421875,-0.44468457 0.07031,-0.1404268 0.105469,-0.3510668 0.105469,-0.6319203 z m 1.359375,0.7606447 0.621094,-0.093618 c 0.03808,0.25159788 0.134765,0.44175906 0.292968,0.57340911 0.164063,0.1345756 0.389649,0.19893785 0.679688,0.19893785 0.287109,0 0.503906,-0.0585111 0.644531,-0.1755334 0.140625,-0.11702227 0.210938,-0.25744899 0.210938,-0.42128016 0,-0.1404267 -0.06445,-0.2515979 -0.1875,-0.3393646 -0.08789,-0.05266 -0.301758,-0.1228733 -0.644532,-0.21064 -0.46875,-0.1170223 -0.793945,-0.2164912 -0.972656,-0.3042579 -0.172852,-0.084841 -0.304687,-0.2018634 -0.398437,-0.3510668 -0.09375,-0.1462779 -0.140625,-0.3159602 -0.140625,-0.5031958 0,-0.1638311 0.03516,-0.3159601 0.105468,-0.4563868 0.07617,-0.1404267 0.181641,-0.257449 0.316407,-0.3510668 0.09961,-0.076065 0.234375,-0.1404267 0.398437,-0.1872356 0.169922,-0.05266 0.354492,-0.081916 0.550781,-0.081916 0.295899,0 0.553711,0.043883 0.773438,0.1287245 0.216797,0.087767 0.377929,0.2047889 0.480469,0.3510668 0.108398,0.1404267 0.18164,0.3335134 0.222656,0.5734091 l -0.609375,0.081916 c -0.03223,-0.1930868 -0.117188,-0.3422902 -0.257813,-0.4446847 -0.134765,-0.1082455 -0.322265,-0.1638311 -0.5625,-0.1638311 -0.290039,0 -0.498047,0.046809 -0.621093,0.1404267 -0.125977,0.093618 -0.1875,0.2077145 -0.1875,0.3393646 0,0.07899 0.02637,0.1521289 0.08203,0.2223423 0.04687,0.064362 0.123047,0.1170222 0.234375,0.1638311 0.06152,0.023404 0.249023,0.07899 0.5625,0.1638312 0.445312,0.1170223 0.755859,0.2164912 0.9375,0.2925557 0.178711,0.07899 0.316406,0.1930867 0.410156,0.3393645 0.09961,0.1404268 0.152344,0.3159602 0.152344,0.5266002 0,0.21064012 -0.06445,0.40957797 -0.1875,0.5968136 -0.117188,0.18723562 -0.292969,0.33351346 -0.527344,0.43298238 -0.234375,0.09946893 -0.498047,0.15212895 -0.785156,0.15212895 -0.486328,0 -0.855469,-0.09654337 -1.113281,-0.29255567 -0.251954,-0.20186341 -0.410157,-0.50319574 -0.480469,-0.90107146 z m 3.849609,1.11171154 V -5.1503449 h 0.632813 v 1.8489517 c 0.295898,-0.3422901 0.670898,-0.5148979 1.125,-0.5148979 0.272461,0 0.509765,0.055586 0.714843,0.1638312 0.202149,0.1111711 0.345704,0.2633001 0.433594,0.4563868 0.09375,0.1872356 0.140625,0.4651635 0.140625,0.8308581 v 2.36384974 H 32.48418 V -2.365215 c 0,-0.310109 -0.07031,-0.5383024 -0.210938,-0.6787292 -0.134765,-0.1462778 -0.325195,-0.2223423 -0.574219,-0.2223423 -0.1875,0 -0.36914,0.05266 -0.539062,0.152129 -0.164063,0.093618 -0.28125,0.2223423 -0.351563,0.3861735 -0.07031,0.1638311 -0.105468,0.3949501 -0.105468,0.6904313 v 2.03618744 z m 0,0"
       style="fill:#000000;fill-opacity:1;fill-rule:nonzero;stroke:none"
       aria-label="Prev Hash"
       transform="matrix(0.35277776,0,0,0.3532759,22.895527,38.878764)"
       clip-path="url(#clipPath630)" />
    <path
       id="path631"
       d="m 288.8,531.9 h -14.4 v 11.5 h 28.8 v -11.5 z"
       style="fill:#ffffff;fill-opacity:1;fill-rule:evenodd;stroke:#000000;stroke-width:1;stroke-linecap:butt;stroke-linejoin:round;stroke-miterlimit:10;stroke-dasharray:none;stroke-opacity:1"
       transform="matrix(0.35277776,0,0,-0.35277776,-57.820036,227.4032)"
       clip-path="url(#clipPath632)" />
    <path
       id="path633"
       d="M 0.54941406,-0.00136526 V -5.1503449 H 1.2408203 l 2.7070313,4.0489703 v -4.0489703 h 0.65625 v 5.14897964 H 3.9009766 L 1.2056641,-4.0386334 v 4.03726814 z M 5.4332031,-1.8620193 c 0,-0.6933569 0.1933594,-1.2053293 0.5859375,-1.5329917 0.319336,-0.2808534 0.7089844,-0.4212801 1.171875,-0.4212801 0.506836,0 0.9257813,0.1696823 1.2539063,0.5031957 0.328125,0.336439 0.4921875,0.8016025 0.4921875,1.392565 0,0.4856424 -0.076172,0.8630392 -0.2226563,1.13511596 -0.140625,0.27500232 -0.3515625,0.48856796 -0.6328125,0.64362246 -0.2753906,0.14627783 -0.571289,0.22234231 -0.890625,0.22234231 -0.524414,0 -0.9492187,-0.16675673 -1.2773437,-0.50319575 C 5.5914062,-0.75615887 5.4332031,-1.2359502 5.4332031,-1.8620193 Z m 0.65625,0 c 0,0.4768657 0.099609,0.8367092 0.3046875,1.07660486 0.2109375,0.23404453 0.4746094,0.3510668 0.796875,0.3510668 0.3105469,0 0.5683594,-0.11702227 0.7734375,-0.3510668 0.2109375,-0.23989566 0.3164063,-0.60851576 0.3164063,-1.10000926 0,-0.4593124 -0.1054688,-0.8074537 -0.3164063,-1.0414982 -0.2050781,-0.2398956 -0.4628906,-0.362769 -0.7734375,-0.362769 -0.3222656,0 -0.5859375,0.1228734 -0.796875,0.362769 -0.2050781,0.2340445 -0.3046875,0.5909624 -0.3046875,1.0649026 z m 3.5742188,1.86065404 V -3.7226733 h 0.5742191 v 0.5266002 c 0.272461,-0.4125035 0.667968,-0.620218 1.183593,-0.620218 0.225586,0 0.433594,0.043883 0.621094,0.1287245 0.1875,0.07899 0.328125,0.18431 0.421875,0.3159601 0.09375,0.1345756 0.158203,0.2896301 0.199219,0.4680891 0.02344,0.1170222 0.03516,0.3218112 0.03516,0.6085157 v 2.29363644 H 12.066016 V -2.2715972 c 0,-0.257449 -0.02344,-0.4476102 -0.07031,-0.5734091 -0.04687,-0.1228734 -0.134766,-0.2252679 -0.257812,-0.3042579 -0.125977,-0.076064 -0.275391,-0.1170223 -0.445313,-0.1170223 -0.266601,0 -0.500976,0.087767 -0.703125,0.257449 -0.196289,0.1726079 -0.292969,0.4973446 -0.292969,0.9712848 v 2.03618744 z m 6.4365231,-1.36916054 0.621094,0.081916 c -0.06445,0.43005684 -0.234375,0.76649586 -0.515625,1.0063915 -0.28125,0.2428212 -0.626953,0.36276903 -1.03125,0.36276903 -0.515625,0 -0.931641,-0.16383118 -1.242187,-0.49149352 -0.304688,-0.33351346 -0.457032,-0.81330471 -0.457032,-1.43937391 0,-0.4037268 0.06445,-0.7547936 0.199219,-1.0532003 0.131836,-0.3042579 0.333984,-0.5295258 0.609375,-0.6787292 0.272461,-0.1550545 0.568359,-0.2340445 0.890625,-0.2340445 0.404297,0 0.738281,0.10532 0.996094,0.3159601 0.257812,0.204789 0.421875,0.4914935 0.492187,0.8659648 l -0.609375,0.093618 c -0.06445,-0.2486723 -0.169922,-0.435908 -0.316406,-0.5617069 -0.149414,-0.1228734 -0.328125,-0.1872356 -0.539062,-0.1872356 -0.322266,0 -0.583008,0.1140967 -0.785157,0.3393645 -0.196289,0.2281935 -0.292968,0.5909625 -0.292968,1.0883071 0,0.5002702 0.09668,0.86303923 0.292968,1.08830709 0.19336,0.22819342 0.445313,0.33936457 0.75,0.33936457 0.249024,0 0.457032,-0.0731389 0.621094,-0.22234231 0.169922,-0.1550545 0.275391,-0.39202455 0.316406,-0.71383645 z m 3.820313,0.1638312 0.65625,0.081916 c -0.102539,0.38324791 -0.292969,0.67872913 -0.574219,0.88936921 -0.275391,0.21064008 -0.629883,0.31596012 -1.066406,0.31596012 -0.547852,0 -0.981446,-0.16675673 -1.300781,-0.50319575 -0.322266,-0.33351345 -0.480469,-0.80160248 -0.480469,-1.40426718 0,-0.6319202 0.158203,-1.1175626 0.480469,-1.4627783 0.328125,-0.3510668 0.75,-0.5266002 1.265625,-0.5266002 0.498046,0 0.905273,0.1726078 1.21875,0.5148979 0.319335,0.3364391 0.480468,0.8133048 0.480468,1.4276717 0,0.040958 0,0.099469 0,0.1755334 h -2.789062 c 0.02344,0.4066524 0.140625,0.71968692 0.351562,0.93617811 0.210938,0.21941675 0.46875,0.32766235 0.773438,0.32766235 0.234375,0 0.433594,-0.0585111 0.597656,-0.1755334 0.164063,-0.12287338 0.292969,-0.32181123 0.386719,-0.59681396 z m -2.074219,-1.0180937 h 2.085938 C 19.9,-2.5348973 19.820898,-2.7689418 19.697852,-2.9269219 c -0.205079,-0.2398956 -0.465821,-0.362769 -0.785157,-0.362769 -0.290039,0 -0.536133,0.099469 -0.738281,0.2925556 -0.196289,0.1960123 -0.304687,0.4534613 -0.328125,0.772347 z m 0,0"
       style="fill:#000000;fill-opacity:1;fill-rule:nonzero;stroke:none"
       aria-label="Nonce"
       transform="matrix(0.35277776,0,0,0.3532759,40.46386,38.878764)"
       clip-path="url(#clipPath634)" />
    <path
       id="path635"
       d="m 234.1,514.6 h -11.6 v 11.5 h 23.1 v -11.5 z"
       style="fill:#ffffff;fill-opacity:1;fill-rule:evenodd;stroke:#000000;stroke-width:1;stroke-linecap:butt;stroke-linejoin:round;stroke-miterlimit:10;stroke-dasharray:none;stroke-opacity:1"
       transform="matrix(0.35277776,0,0,-0.35277776,-57.820036,227.4032)"
       clip-path="url(#clipPath636)" />
    <path
       id="path637"
       d="M 1.8642578,9.7518555e-4 V -4.5394887 H 0.16503906 V -5.1480045 H 4.2548828 v 0.6085158 H 2.5439453 V 9.7518555e-4 Z m 2.4814453,0 L 5.7167969,-1.9298922 4.4511719,-3.7203329 h 0.796875 l 0.5742187,0.8659648 c 0.099609,0.1726078 0.1875,0.3130346 0.2578125,0.4212802 0.099609,-0.1550545 0.1933594,-0.2925557 0.28125,-0.409578 l 0.6328125,-0.877667 h 0.75 L 6.4550781,-1.9649989 7.8496094,9.7518555e-4 H 7.0644531 L 6.3027344,-1.1575452 6.1035156,-1.4735054 5.1191406,9.7518555e-4 Z m 0,0"
       style="fill:#000000;fill-opacity:1;fill-rule:nonzero;stroke:none"
       aria-label="Tx"
       transform="matrix(0.35277776,0,0,0.3532759,23.31886,45.017098)"
       clip-path="url(#clipPath638)" />
    <path
       id="path639"
       d="m 262.9,514.6 h -11.6 v 11.5 h 23.1 v -11.5 z"
       style="fill:#ffffff;fill-opacity:1;fill-rule:evenodd;stroke:#000000;stroke-width:1;stroke-linecap:butt;stroke-linejoin:round;stroke-miterlimit:10;stroke-dasharray:none;stroke-opacity:1"
       transform="matrix(0.35277776,0,0,-0.35277776,-57.820036,227.4032)"
       clip-path="url(#clipPath640)" />
    <path
       id="path641"
       d="M 1.8630859,9.7518555e-4 V -4.5394887 H 0.16386719 V -5.1480045 H 4.2537109 v 0.6085158 H 2.5427734 V 9.7518555e-4 Z m 2.484375,0 L 5.7185547,-1.9298922 4.4529297,-3.7203329 h 0.796875 l 0.5742187,0.8659648 c 0.099609,0.1726078 0.1875,0.3130346 0.2578125,0.4212802 0.099609,-0.1550545 0.1933594,-0.2925557 0.28125,-0.409578 l 0.6328125,-0.877667 h 0.75 L 6.4568359,-1.9649989 7.8513672,9.7518555e-4 H 7.0662109 L 6.3044922,-1.1575452 6.1052734,-1.4735054 5.1208984,9.7518555e-4 Z m 0,0"
       style="fill:#000000;fill-opacity:1;fill-rule:nonzero;stroke:none"
       aria-label="Tx"
       transform="matrix(0.35277776,0,0,0.3532759,33.47886,45.017098)"
       clip-path="url(#clipPath642)" />
    <path
       id="path643"
       d="m 291.6,514.6 h -11.5 v 11.5 h 23.1 v -11.5 z"
       style="fill:#ffffff;fill-opacity:1;fill-rule:evenodd;stroke:#000000;stroke-width:1;stroke-linecap:butt;stroke-linejoin:round;stroke-miterlimit:10;stroke-dasharray:none;stroke-opacity:1"
       transform="matrix(0.35277776,0,0,-0.35277776,-57.820036,227.4032)"
       clip-path="url(#clipPath644)" />
    <path
       id="path645"
       d="M 0.65605469,9.7518555e-4 V -0.71286063 H 1.3708984 V 9.7518555e-4 Z m 1.99804691,0 V -0.71286063 H 3.3689453 V 9.7518555e-4 Z m 2.0009765,0 V -0.71286063 H 5.3699219 V 9.7518555e-4 Z m 0,0"
       style="fill:#000000;fill-opacity:1;fill-rule:nonzero;stroke:none"
       aria-label="..."
       transform="matrix(0.35277776,0,0,0.3532759,44.062194,45.017098)"
       clip-path="url(#clipPath646)" />
    <path
       id="path647"
       d="m 222.5,537.6 -6.8,-2.3 v 4.6 z"
       style="fill:#000000;fill-opacity:1;fill-rule:evenodd;stroke:none"
       transform="matrix(0.35277776,0,0,-0.35277776,-57.820036,227.4032)"
       clip-path="url(#clipPath648)" />
    <path
       id="path649"
       d="m 188,537.6 h 29"
       style="fill:none;stroke:#000000;stroke-width:0.1;stroke-linecap:butt;stroke-linejoin:miter;stroke-miterlimit:10;stroke-dasharray:none;stroke-opacity:1"
       transform="matrix(0.35277776,0,0,-0.35277776,-57.820036,227.4032)"
       clip-path="url(#clipPath650)" />
    <path
       id="path651"
       d="m 375.1,508.8 h -48.9 v 51.9 h 97.9 v -51.9 z"
       style="fill:#ffffff;fill-opacity:1;fill-rule:evenodd;stroke:#000000;stroke-width:1;stroke-linecap:butt;stroke-linejoin:round;stroke-miterlimit:10;stroke-dasharray:none;stroke-opacity:1"
       transform="matrix(0.35277776,0,0,-0.35277776,-57.820036,227.4032)"
       clip-path="url(#clipPath652)" />
    <path
       id="path653"
       d="M 0.52832031,9.7518555e-4 V -5.1480045 H 2.4619141 c 0.3896484,0 0.703125,0.055586 0.9375,0.1638312 0.2402343,0.1023945 0.4277343,0.2633001 0.5625,0.4797913 0.140625,0.2194167 0.2109375,0.4446846 0.2109375,0.6787291 0,0.2194167 -0.064453,0.4271313 -0.1875,0.620218 -0.1171875,0.1960123 -0.2988282,0.3510668 -0.5390625,0.4680891 0.3105468,0.093618 0.5507812,0.2515978 0.7148437,0.468089 0.1699219,0.2194168 0.2578125,0.4797913 0.2578125,0.7840492 0,0.2340445 -0.052734,0.4563868 -0.1523437,0.66702693 -0.1025391,0.21064007 -0.2314454,0.37154569 -0.3867188,0.47979129 -0.149414,0.11117115 -0.336914,0.19601229 -0.5625,0.25744898 C 3.0976563,-0.02535482 2.8251953,9.7518555e-4 2.4970703,9.7518555e-4 Z M 1.2080078,-2.9830926 h 1.1132813 c 0.3046875,0 0.5214843,-0.017553 0.65625,-0.058511 0.1699218,-0.05266 0.2988281,-0.1404267 0.3867187,-0.257449 0.084961,-0.1170223 0.1289063,-0.2633001 0.1289063,-0.4446846 0,-0.1696823 -0.043945,-0.3188857 -0.1289063,-0.4446846 C 3.2851568,-4.3200719 3.1679688,-4.4107641 3.0126953,-4.457573 2.8632813,-4.510233 2.6054688,-4.539489 2.2392578,-4.539489 h -1.03125 z m 0,2.375552 h 1.2890625 c 0.2167969,0 0.3691406,-0.005851 0.4570313,-0.0234045 0.1552734,-0.0292556 0.2841797,-0.0760645 0.3867187,-0.14042672 0.1083985,-0.0614367 0.1992188,-0.1550545 0.2695313,-0.28085348 0.070312,-0.1228734 0.1054687,-0.2691512 0.1054687,-0.4329824 0,-0.1930867 -0.052734,-0.362769 -0.1523437,-0.5031957 -0.1025391,-0.1404266 -0.2402344,-0.23697 -0.4101563,-0.2925556 -0.1728515,-0.061437 -0.421875,-0.093618 -0.75,-0.093618 H 1.2080078 Z M 5.2597656,9.7518555e-4 V -5.1480045 H 5.8925781 V 9.7518555e-4 Z M 6.6396484,-1.8596788 c 0,-0.693357 0.1933594,-1.2053294 0.5859375,-1.5329917 0.319336,-0.2808535 0.7089844,-0.4212802 1.171875,-0.4212802 0.506836,0 0.9257813,0.1696823 1.2539063,0.5031958 0.328125,0.336439 0.4921878,0.8016025 0.4921878,1.3925649 0,0.4856424 -0.07617,0.8630392 -0.2226566,1.13511601 -0.140625,0.27500232 -0.3515625,0.48856795 -0.6328125,0.64362246 -0.2753906,0.14627783 -0.571289,0.2223423 -0.890625,0.2223423 -0.524414,0 -0.9492187,-0.16675673 -1.2773437,-0.50319574 C 6.7978516,-0.75381843 6.6396484,-1.2336097 6.6396484,-1.8596788 Z m 0.65625,0 c 0,0.4768657 0.099609,0.8367092 0.3046875,1.07660481 0.2109375,0.23404453 0.4746094,0.35106679 0.796875,0.35106679 0.3105469,0 0.5683594,-0.11702226 0.7734375,-0.35106679 0.2109375,-0.23989561 0.3164063,-0.60851581 0.3164063,-1.10000931 0,-0.4593124 -0.1054688,-0.8074536 -0.3164063,-1.0414982 -0.2050781,-0.2398956 -0.4628906,-0.362769 -0.7734375,-0.362769 -0.3222656,0 -0.5859375,0.1228734 -0.796875,0.362769 -0.2050781,0.2340446 -0.3046875,0.5909625 -0.3046875,1.0649027 z m 6.0146486,0.4914935 0.621094,0.081916 c -0.06445,0.43005679 -0.234375,0.7664958 -0.515625,1.00639145 -0.28125,0.2428212 -0.626953,0.36276902 -1.03125,0.36276902 -0.515625,0 -0.931641,-0.16383117 -1.242188,-0.49149351 -0.304687,-0.33351346 -0.457031,-0.81330476 -0.457031,-1.43937386 0,-0.4037268 0.06445,-0.7547936 0.199219,-1.0532004 0.131836,-0.3042579 0.333984,-0.5295258 0.609375,-0.6787291 0.272461,-0.1550545 0.568359,-0.2340446 0.890625,-0.2340446 0.404297,0 0.738281,0.1053201 0.996093,0.3159601 0.257813,0.204789 0.421875,0.4914936 0.492188,0.8659648 l -0.609375,0.093618 c -0.06445,-0.2486723 -0.169922,-0.4359079 -0.316406,-0.5617069 -0.149414,-0.1228733 -0.328125,-0.1872356 -0.539063,-0.1872356 -0.322265,0 -0.583008,0.1140967 -0.785156,0.3393646 -0.196289,0.2281934 -0.292969,0.5909624 -0.292969,1.0883071 0,0.5002701 0.09668,0.86303917 0.292969,1.08830703 0.193359,0.22819342 0.445312,0.33936457 0.75,0.33936457 0.249023,0 0.457031,-0.0731389 0.621094,-0.2223423 0.169922,-0.1550545 0.27539,-0.3920246 0.316406,-0.7138364 z M 14.587891,9.7518555e-4 V -5.1480045 h 0.632812 v 2.9372589 l 1.488281,-1.5095873 h 0.820313 l -1.417969,1.3808628 1.570313,2.34044528555 H 16.896484 L 15.666016,-1.9064877 15.220703,-1.4735054 V 9.7518555e-4 Z m 0,0"
       style="fill:#000000;fill-opacity:1;fill-rule:nonzero;stroke:none"
       aria-label="Block"
       transform="matrix(0.35277776,0,0,0.3532759,59.302193,33.375431)"
       clip-path="url(#clipPath654)" />
    <path
       id="path655"
       d="m 360.7,531.9 h -23 v 11.5 h 46.1 v -11.5 z"
       style="fill:#ffffff;fill-opacity:1;fill-rule:evenodd;stroke:#000000;stroke-width:1;stroke-linecap:butt;stroke-linejoin:round;stroke-miterlimit:10;stroke-dasharray:none;stroke-opacity:1"
       transform="matrix(0.35277776,0,0,-0.35277776,-57.820036,227.4032)"
       clip-path="url(#clipPath656)" />
    <path
       id="path657"
       d="M 0.55214844,-0.00136526 V -5.1503449 H 2.4974609 c 0.3427735,0 0.6035157,0.020479 0.7851563,0.058511 0.2490234,0.040958 0.4599609,0.1170223 0.6328125,0.2340445 0.1699219,0.1170223 0.3076172,0.2867046 0.4101562,0.5031958 0.1083985,0.21064 0.1640625,0.4446846 0.1640625,0.7021336 0,0.4388334 -0.140625,0.8074536 -0.421875,1.1117115 -0.28125,0.2984068 -0.7851562,0.4446846 -1.5117187,0.4446846 h -1.3125 v 2.09469854 z M 1.2435547,-2.7045796 h 1.3242187 c 0.4453125,0 0.7558594,-0.081916 0.9375,-0.2457468 0.1875,-0.1638311 0.28125,-0.3920245 0.28125,-0.6904313 0,-0.2106401 -0.055664,-0.3890991 -0.1640625,-0.5383024 C 3.5111328,-4.3341146 3.3675781,-4.4394347 3.1888672,-4.4950203 3.0775391,-4.5242758 2.8666016,-4.5418292 2.5560547,-4.5418292 h -1.3125 z M 5.271875,-0.00136526 V -3.7226733 h 0.5625 v 0.5617069 c 0.1464844,-0.2633001 0.2841797,-0.4388335 0.4101563,-0.5266002 0.1230468,-0.084841 0.2578125,-0.1287245 0.3984375,-0.1287245 0.2167968,0 0.4365234,0.070213 0.65625,0.2106401 l -0.2226563,0.5851113 c -0.1582031,-0.093618 -0.3105469,-0.1404267 -0.4570312,-0.1404267 -0.140625,0 -0.2666016,0.043883 -0.375,0.1287245 -0.1113282,0.07899 -0.1875,0.1930867 -0.234375,0.3393645 -0.070312,0.2281934 -0.1054688,0.4739402 -0.1054688,0.7372403 v 1.95427184 z m 4.957031,-1.20532934 0.65625,0.081916 c -0.102539,0.38324791 -0.292968,0.67872913 -0.574218,0.88936921 -0.275391,0.21064008 -0.6298833,0.31596012 -1.0664067,0.31596012 -0.5478516,0 -0.9814454,-0.16675673 -1.3007813,-0.50319575 C 7.6214844,-0.75615887 7.4632813,-1.2242479 7.4632813,-1.8269126 c 0,-0.6319202 0.1582031,-1.1175626 0.4804687,-1.4627783 0.328125,-0.3510668 0.75,-0.5266002 1.265625,-0.5266002 0.4980469,0 0.905273,0.1726078 1.21875,0.5148979 0.319336,0.3364391 0.480469,0.8133048 0.480469,1.4276717 0,0.040958 0,0.099469 0,0.1755334 H 8.1195313 c 0.023437,0.4066524 0.140625,0.71968692 0.3515625,0.93617811 0.2109375,0.21941675 0.46875,0.32766235 0.7734375,0.32766235 0.234375,0 0.4335937,-0.0585111 0.5976562,-0.1755334 C 10.00625,-0.73275442 10.135156,-0.93169227 10.228906,-1.2066946 Z M 8.1546875,-2.2247883 h 2.0859375 c -0.03223,-0.310109 -0.111328,-0.5441535 -0.234375,-0.7021336 -0.2050781,-0.2398956 -0.4658203,-0.362769 -0.7851562,-0.362769 -0.2900391,0 -0.5361329,0.099469 -0.7382813,0.2925556 -0.1962891,0.1960123 -0.3046875,0.4534613 -0.328125,0.772347 z m 4.5585935,2.22342304 -1.417968,-3.72130804 h 0.667968 l 0.796875,2.223423 c 0.08496,0.2428212 0.166992,0.4914936 0.246094,0.74894254 0.05273,-0.19308674 0.131836,-0.42713124 0.234375,-0.70213364 l 0.820313,-2.2702319 h 0.65625 l -1.417969,3.72130804 z m 4.664063,0 V -5.1503449 h 0.679687 v 2.118103 h 2.683594 v -2.118103 h 0.679688 v 5.14897964 H 20.740625 V -2.4237262 h -2.683594 v 2.42236094 z m 7.429687,-0.45638684 c -0.234375,0.1960123 -0.46289,0.33643902 -0.679687,0.42128016 -0.210938,0.07606447 -0.442383,0.11702227 -0.691406,0.11702227 -0.407227,0 -0.723633,-0.09654337 -0.949219,-0.29255567 -0.219727,-0.20186341 -0.328125,-0.45931239 -0.328125,-0.77234695 0,-0.17845891 0.03809,-0.34229011 0.117187,-0.49149351 0.08496,-0.1550545 0.19336,-0.2750023 0.328125,-0.362769 0.140625,-0.093618 0.295899,-0.1638312 0.46875,-0.2106401 0.117188,-0.038032 0.304688,-0.070213 0.5625,-0.093618 0.506836,-0.061437 0.881836,-0.1345756 1.125,-0.2223423 0,-0.084841 0,-0.1404267 0,-0.1638312 0,-0.257449 -0.05859,-0.4388335 -0.175781,-0.5500046 -0.164062,-0.1404268 -0.407227,-0.2106401 -0.726562,-0.2106401 -0.298829,0 -0.515625,0.055586 -0.65625,0.1638311 -0.140625,0.1023945 -0.246094,0.2867046 -0.316407,0.5500047 l -0.621093,-0.093618 c 0.06152,-0.257449 0.155273,-0.4680891 0.28125,-0.6319203 0.131835,-0.1638311 0.319335,-0.2867045 0.5625,-0.3744712 0.240234,-0.093618 0.521484,-0.1404267 0.84375,-0.1404267 0.319335,0 0.577148,0.040958 0.773437,0.1170222 0.202148,0.07899 0.351563,0.1755334 0.445313,0.2925557 0.09375,0.1111712 0.158203,0.2515979 0.199218,0.4212802 0.01465,0.1111711 0.02344,0.3042579 0.02344,0.5851113 v 0.8425603 c 0,0.58511134 0.01172,0.95665703 0.03516,1.11171153 0.0293,0.15798006 0.08496,0.30425789 0.164063,0.44468461 h -0.65625 c -0.06445,-0.13165005 -0.105469,-0.28377899 -0.128907,-0.45638684 z m -0.04687,-1.4159694 c -0.234375,0.093618 -0.580078,0.1755334 -1.03125,0.2457467 -0.266601,0.032181 -0.454101,0.070213 -0.5625,0.1170223 -0.102539,0.046809 -0.18457,0.1170223 -0.246093,0.2106401 -0.05567,0.087767 -0.08203,0.1872356 -0.08203,0.30425788 0,0.16383117 0.06152,0.30425789 0.1875,0.42128016 0.123047,0.11117115 0.310547,0.16383117 0.5625,0.16383117 0.240235,0 0.457032,-0.0497345 0.644532,-0.15212894 0.193359,-0.1082456 0.333984,-0.25744899 0.421875,-0.44468457 0.07031,-0.1404268 0.105468,-0.3510668 0.105468,-0.6319203 z m 1.461914,0.7606447 0.621094,-0.093618 c 0.03809,0.25159788 0.134766,0.44175906 0.292969,0.57340911 0.164062,0.1345756 0.389648,0.19893785 0.679687,0.19893785 0.28711,0 0.503907,-0.0585111 0.644532,-0.1755334 0.140625,-0.11702227 0.210937,-0.25744899 0.210937,-0.42128016 0,-0.1404267 -0.06445,-0.2515979 -0.1875,-0.3393646 -0.08789,-0.05266 -0.301758,-0.1228733 -0.644531,-0.21064 -0.46875,-0.1170223 -0.793945,-0.2164912 -0.972656,-0.3042579 -0.172852,-0.084841 -0.304688,-0.2018634 -0.398438,-0.3510668 -0.09375,-0.1462779 -0.140625,-0.3159602 -0.140625,-0.5031958 0,-0.1638311 0.03516,-0.3159601 0.105469,-0.4563868 0.07617,-0.1404267 0.18164,-0.257449 0.316406,-0.3510668 0.09961,-0.076065 0.234375,-0.1404267 0.398438,-0.1872356 0.169921,-0.05266 0.354492,-0.081916 0.550781,-0.081916 0.295898,0 0.553711,0.043883 0.773437,0.1287245 0.216797,0.087767 0.37793,0.2047889 0.480469,0.3510668 0.108399,0.1404267 0.181641,0.3335134 0.222656,0.5734091 l -0.609375,0.081916 c -0.03223,-0.1930868 -0.117187,-0.3422902 -0.257812,-0.4446847 -0.134766,-0.1082455 -0.322266,-0.1638311 -0.5625,-0.1638311 -0.290039,0 -0.498047,0.046809 -0.621094,0.1404267 -0.125976,0.093618 -0.1875,0.2077145 -0.1875,0.3393646 0,0.07899 0.02637,0.1521289 0.08203,0.2223423 0.04687,0.064362 0.123047,0.1170222 0.234375,0.1638311 0.06152,0.023404 0.249024,0.07899 0.5625,0.1638312 0.445313,0.1170223 0.75586,0.2164912 0.9375,0.2925557 0.178711,0.07899 0.316407,0.1930867 0.410157,0.3393645 0.09961,0.1404268 0.152343,0.3159602 0.152343,0.5266002 0,0.21064012 -0.06445,0.40957797 -0.1875,0.5968136 -0.117187,0.18723562 -0.292968,0.33351346 -0.527343,0.43298238 -0.234375,0.09946893 -0.498047,0.15212895 -0.785157,0.15212895 -0.486328,0 -0.855468,-0.09654337 -1.113281,-0.29255567 C 26.45059,-0.41386895 26.292387,-0.71520128 26.222074,-1.113077 Z m 3.84668,1.11171154 V -5.1503449 h 0.632813 v 1.8489517 c 0.295898,-0.3422901 0.670898,-0.5148979 1.125,-0.5148979 0.27246,0 0.509765,0.055586 0.714843,0.1638312 0.202149,0.1111711 0.345703,0.2633001 0.433594,0.4563868 0.09375,0.1872356 0.140625,0.4651635 0.140625,0.8308581 v 2.36384974 H 32.482813 V -2.365215 c 0,-0.310109 -0.07031,-0.5383024 -0.210938,-0.6787292 -0.134766,-0.1462778 -0.325195,-0.2223423 -0.574219,-0.2223423 -0.1875,0 -0.36914,0.05266 -0.539062,0.152129 -0.164063,0.093618 -0.28125,0.2223423 -0.351563,0.3861735 -0.07031,0.1638311 -0.105468,0.3949501 -0.105468,0.6904313 v 2.03618744 z m 0,0"
       style="fill:#000000;fill-opacity:1;fill-rule:nonzero;stroke:none"
       aria-label="Prev Hash"
       transform="matrix(0.35277776,0,0,0.3532759,63.500231,38.878764)"
       clip-path="url(#clipPath658)" />
    <path
       id="path659"
       d="m 403.9,531.9 h -14.4 v 11.5 h 28.8 v -11.5 z"
       style="fill:#ffffff;fill-opacity:1;fill-rule:evenodd;stroke:#000000;stroke-width:1;stroke-linecap:butt;stroke-linejoin:round;stroke-miterlimit:10;stroke-dasharray:none;stroke-opacity:1"
       transform="matrix(0.35277776,0,0,-0.35277776,-57.820036,227.4032)"
       clip-path="url(#clipPath660)" />
    <path
       id="path661"
       d="M 0.55097656,-0.00136526 V -5.1503449 H 1.2423828 l 2.7070313,4.0489703 v -4.0489703 h 0.65625 v 5.14897964 H 3.9025391 L 1.2072266,-4.0386334 v 4.03726814 z M 5.4318359,-1.8620193 c 0,-0.6933569 0.1933594,-1.2053293 0.5859375,-1.5329917 0.319336,-0.2808534 0.7089844,-0.4212801 1.171875,-0.4212801 0.506836,0 0.9257813,0.1696823 1.2539063,0.5031957 0.328125,0.336439 0.4921875,0.8016025 0.4921875,1.392565 0,0.4856424 -0.076172,0.8630392 -0.2226563,1.13511596 -0.140625,0.27500232 -0.3515625,0.48856796 -0.6328125,0.64362246 -0.2753906,0.14627783 -0.571289,0.22234231 -0.890625,0.22234231 -0.524414,0 -0.9492187,-0.16675673 -1.2773437,-0.50319575 C 5.5900391,-0.75615887 5.4318359,-1.2359502 5.4318359,-1.8620193 Z m 0.65625,0 c 0,0.4768657 0.099609,0.8367092 0.3046875,1.07660486 0.2109375,0.23404453 0.4746094,0.3510668 0.796875,0.3510668 0.3105469,0 0.5683594,-0.11702227 0.7734375,-0.3510668 0.2109375,-0.23989566 0.3164063,-0.60851576 0.3164063,-1.10000926 0,-0.4593124 -0.1054688,-0.8074537 -0.3164063,-1.0414982 -0.2050781,-0.2398956 -0.4628906,-0.362769 -0.7734375,-0.362769 -0.3222656,0 -0.5859375,0.1228734 -0.796875,0.362769 -0.2050781,0.2340445 -0.3046875,0.5909624 -0.3046875,1.0649026 z m 3.5771485,1.86065404 V -3.7226733 h 0.5742186 v 0.5266002 c 0.272461,-0.4125035 0.667969,-0.620218 1.183594,-0.620218 0.225586,0 0.433594,0.043883 0.621094,0.1287245 0.1875,0.07899 0.328125,0.18431 0.421875,0.3159601 0.09375,0.1345756 0.158203,0.2896301 0.199218,0.4680891 0.02344,0.1170222 0.03516,0.3218112 0.03516,0.6085157 v 2.29363644 H 12.067578 V -2.2715972 c 0,-0.257449 -0.02344,-0.4476102 -0.07031,-0.5734091 -0.04687,-0.1228734 -0.134766,-0.2252679 -0.257813,-0.3042579 -0.125976,-0.076064 -0.27539,-0.1170223 -0.445312,-0.1170223 -0.266602,0 -0.500977,0.087767 -0.703125,0.257449 -0.196289,0.1726079 -0.292969,0.4973446 -0.292969,0.9712848 v 2.03618744 z m 6.5361326,-1.36916054 0.621094,0.081916 c -0.06445,0.43005684 -0.234375,0.76649586 -0.515625,1.0063915 -0.28125,0.2428212 -0.626953,0.36276903 -1.03125,0.36276903 -0.515625,0 -0.931641,-0.16383118 -1.242188,-0.49149352 -0.304687,-0.33351346 -0.457031,-0.81330471 -0.457031,-1.43937391 0,-0.4037268 0.06445,-0.7547936 0.199219,-1.0532003 0.131836,-0.3042579 0.333984,-0.5295258 0.609375,-0.6787292 0.272461,-0.1550545 0.568359,-0.2340445 0.890625,-0.2340445 0.404297,0 0.738281,0.10532 0.996094,0.3159601 0.257812,0.204789 0.421875,0.4914935 0.492187,0.8659648 l -0.609375,0.093618 c -0.06445,-0.2486723 -0.169922,-0.435908 -0.316406,-0.5617069 -0.149414,-0.1228734 -0.328125,-0.1872356 -0.539063,-0.1872356 -0.322265,0 -0.583007,0.1140967 -0.785156,0.3393645 -0.196289,0.2281935 -0.292969,0.5909625 -0.292969,1.0883071 0,0.5002702 0.09668,0.86303923 0.292969,1.08830709 0.19336,0.22819342 0.445313,0.33936457 0.75,0.33936457 0.249024,0 0.457031,-0.0731389 0.621094,-0.22234231 0.169922,-0.1550545 0.275391,-0.39202455 0.316406,-0.71383645 z m 3.717774,0.1638312 0.65625,0.081916 c -0.102539,0.38324791 -0.292969,0.67872913 -0.574219,0.88936921 -0.275391,0.21064008 -0.629883,0.31596012 -1.066406,0.31596012 -0.547852,0 -0.981446,-0.16675673 -1.300782,-0.50319575 -0.322265,-0.33351345 -0.480468,-0.80160248 -0.480468,-1.40426718 0,-0.6319202 0.158203,-1.1175626 0.480468,-1.4627783 0.328125,-0.3510668 0.75,-0.5266002 1.265625,-0.5266002 0.498047,0 0.905274,0.1726078 1.21875,0.5148979 0.319336,0.3364391 0.480469,0.8133048 0.480469,1.4276717 0,0.040958 0,0.099469 0,0.1755334 h -2.789062 c 0.02344,0.4066524 0.140625,0.71968692 0.351562,0.93617811 0.210938,0.21941675 0.46875,0.32766235 0.773438,0.32766235 0.234375,0 0.433593,-0.0585111 0.597656,-0.1755334 0.164062,-0.12287338 0.292969,-0.32181123 0.386719,-0.59681396 z m -2.074219,-1.0180937 h 2.085937 c -0.03223,-0.310109 -0.111328,-0.5441535 -0.234375,-0.7021336 -0.205078,-0.2398956 -0.46582,-0.362769 -0.785156,-0.362769 -0.290039,0 -0.536133,0.099469 -0.738281,0.2925556 -0.196289,0.1960123 -0.304688,0.4534613 -0.328125,0.772347 z m 0,0"
       style="fill:#000000;fill-opacity:1;fill-rule:nonzero;stroke:none"
       aria-label="Nonce"
       transform="matrix(0.35277776,0,0,0.3532759,81.068564,38.878764)"
       clip-path="url(#clipPath662)" />
    <path
       id="path663"
       d="m 349.2,514.6 h -11.5 v 11.5 h 23 v -11.5 z"
       style="fill:#ffffff;fill-opacity:1;fill-rule:evenodd;stroke:#000000;stroke-width:1;stroke-linecap:butt;stroke-linejoin:round;stroke-miterlimit:10;stroke-dasharray:none;stroke-opacity:1"
       transform="matrix(0.35277776,0,0,-0.35277776,-57.820036,227.4032)"
       clip-path="url(#clipPath664)" />
    <path
       id="path665"
       d="M 1.8628906,9.7518555e-4 V -4.5394887 H 0.16367187 V -5.1480045 H 4.2535156 v 0.6085158 H 2.5425781 V 9.7518555e-4 Z m 2.484375,0 L 5.7183594,-1.9298922 4.4527344,-3.7203329 h 0.796875 l 0.5742187,0.8659648 c 0.099609,0.1726078 0.1875,0.3130346 0.2578125,0.4212802 0.099609,-0.1550545 0.1933594,-0.2925557 0.28125,-0.409578 l 0.6328125,-0.877667 h 0.75 L 6.4566406,-1.9649989 7.8511719,9.7518555e-4 H 7.0660156 L 6.3042969,-1.1575452 6.1050781,-1.4735054 5.1207031,9.7518555e-4 Z m 0,0"
       style="fill:#000000;fill-opacity:1;fill-rule:nonzero;stroke:none"
       aria-label="Tx"
       transform="matrix(0.35277776,0,0,0.3532759,63.923565,45.017098)"
       clip-path="url(#clipPath666)" />
    <path
       id="path667"
       d="m 378,514.6 h -11.5 v 11.5 h 23 v -11.5 z"
       style="fill:#ffffff;fill-opacity:1;fill-rule:evenodd;stroke:#000000;stroke-width:1;stroke-linecap:butt;stroke-linejoin:round;stroke-miterlimit:10;stroke-dasharray:none;stroke-opacity:1"
       transform="matrix(0.35277776,0,0,-0.35277776,-57.820036,227.4032)"
       clip-path="url(#clipPath668)" />
    <path
       id="path669"
       d="M 1.8646484,9.7518555e-4 V -4.5394887 H 0.16542969 V -5.1480045 H 4.2552734 v 0.6085158 H 2.5443359 V 9.7518555e-4 Z m 2.4814454,0 L 5.7171875,-1.9298922 4.4515625,-3.7203329 h 0.796875 l 0.5742188,0.8659648 c 0.099609,0.1726078 0.1875,0.3130346 0.2578125,0.4212802 0.099609,-0.1550545 0.1933593,-0.2925557 0.28125,-0.409578 l 0.6328125,-0.877667 h 0.75 L 6.4554688,-1.9649989 7.85,9.7518555e-4 H 7.0648438 L 6.303125,-1.1575452 6.1039063,-1.4735054 5.1195313,9.7518555e-4 Z m 0,0"
       style="fill:#000000;fill-opacity:1;fill-rule:nonzero;stroke:none"
       aria-label="Tx"
       transform="matrix(0.35277776,0,0,0.3532759,74.083564,45.017098)"
       clip-path="url(#clipPath670)" />
    <path
       id="path671"
       d="m 406.8,514.6 h -11.5 v 11.5 h 23 v -11.5 z"
       style="fill:#ffffff;fill-opacity:1;fill-rule:evenodd;stroke:#000000;stroke-width:1;stroke-linecap:butt;stroke-linejoin:round;stroke-miterlimit:10;stroke-dasharray:none;stroke-opacity:1"
       transform="matrix(0.35277776,0,0,-0.35277776,-57.820036,227.4032)"
       clip-path="url(#clipPath672)" />
    <path
       id="path673"
       d="M 0.65761719,9.7518555e-4 V -0.71286063 H 1.3724609 V 9.7518555e-4 Z m 2.09765621,0 V -0.71286063 H 3.4701172 V 9.7518555e-4 Z m 1.9980469,0 V -0.71286063 H 5.4681641 V 9.7518555e-4 Z m 0,0"
       style="fill:#000000;fill-opacity:1;fill-rule:nonzero;stroke:none"
       aria-label="..."
       transform="matrix(0.35277776,0,0,0.3532759,84.666898,45.017098)"
       clip-path="url(#clipPath674)" />
    <path
       id="path675"
       d="m 337.7,537.6 -6.9,-2.3 v 4.6 z"
       style="fill:#000000;fill-opacity:1;fill-rule:evenodd;stroke:none"
       transform="matrix(0.35277776,0,0,-0.35277776,-57.820036,227.4032)"
       clip-path="url(#clipPath676)" />
    <path
       id="path677"
       d="m 308.9,537.6 h 23.3"
       style="fill:none;stroke:#000000;stroke-width:0.1;stroke-linecap:butt;stroke-linejoin:miter;stroke-miterlimit:10;stroke-dasharray:none;stroke-opacity:1"
       transform="matrix(0.35277776,0,0,-0.35277776,-57.820036,227.4032)"
       clip-path="url(#clipPath678)" />
  </g>
</svg>
