<?xml version="1.0" encoding="UTF-8" standalone="no"?>
<!-- Created with Inkscape (http://www.inkscape.org/) -->

<svg
   width="74mm"
   height="52mm"
   viewBox="0 0 74 52"
   version="1.1"
   id="svg1"
   inkscape:version="1.3.2 (091e20ef0f, 2023-11-25, custom)"
   sodipodi:docname="transaction.svg"
   xmlns:inkscape="http://www.inkscape.org/namespaces/inkscape"
   xmlns:sodipodi="http://sodipodi.sourceforge.net/DTD/sodipodi-0.dtd"
   xmlns="http://www.w3.org/2000/svg"
   xmlns:svg="http://www.w3.org/2000/svg">
  <sodipodi:namedview
     id="namedview1"
     pagecolor="#505050"
     bordercolor="#eeeeee"
     borderopacity="1"
     inkscape:showpageshadow="0"
     inkscape:pageopacity="0"
     inkscape:pagecheckerboard="0"
     inkscape:deskcolor="#505050"
     inkscape:document-units="mm"
     inkscape:zoom="1.0235901"
     inkscape:cx="396.64316"
     inkscape:cy="561.25984"
     inkscape:window-width="2560"
     inkscape:window-height="1377"
     inkscape:window-x="0"
     inkscape:window-y="63"
     inkscape:window-maximized="1"
     inkscape:current-layer="layer1" />
  <defs
     id="defs1">
    <clipPath
       clipPathUnits="userSpaceOnUse"
       id="clipPath624">
      <path
         d="m 188,508.9 h 236.4 v 51.8 H 188 Z"
         clip-rule="evenodd"
         id="path624" />
    </clipPath>
    <clipPath
       clipPathUnits="userSpaceOnUse"
       id="clipPath626">
      <path
         d="m 188,508.9 h 236.4 v 51.8 H 188 Z"
         transform="matrix(1,0,0,-0.99858999,-216.80003,549.22449)"
         clip-rule="evenodd"
         id="path626" />
    </clipPath>
    <clipPath
       clipPathUnits="userSpaceOnUse"
       id="clipPath628">
      <path
         d="m 188,508.9 h 236.4 v 51.8 H 188 Z"
         clip-rule="evenodd"
         id="path628" />
    </clipPath>
    <clipPath
       clipPathUnits="userSpaceOnUse"
       id="clipPath630">
      <path
         d="m 188,508.9 h 236.4 v 51.8 H 188 Z"
         transform="matrix(1,0,0,-0.99858999,-228.80003,533.64649)"
         clip-rule="evenodd"
         id="path630" />
    </clipPath>
    <clipPath
       clipPathUnits="userSpaceOnUse"
       id="clipPath632">
      <path
         d="m 188,508.9 h 236.4 v 51.8 H 188 Z"
         clip-rule="evenodd"
         id="path632" />
    </clipPath>
    <clipPath
       clipPathUnits="userSpaceOnUse"
       id="clipPath634">
      <path
         d="m 188,508.9 h 236.4 v 51.8 H 188 Z"
         transform="matrix(1,0,0,-0.99858999,-278.60003,533.64649)"
         clip-rule="evenodd"
         id="path634" />
    </clipPath>
    <clipPath
       clipPathUnits="userSpaceOnUse"
       id="clipPath636">
      <path
         d="m 188,508.9 h 236.4 v 51.8 H 188 Z"
         clip-rule="evenodd"
         id="path636" />
    </clipPath>
    <clipPath
       clipPathUnits="userSpaceOnUse"
       id="clipPath638">
      <path
         d="m 188,508.9 h 236.4 v 51.8 H 188 Z"
         transform="matrix(1,0,0,-0.99858999,-230.00003,516.27102)"
         clip-rule="evenodd"
         id="path638" />
    </clipPath>
    <clipPath
       clipPathUnits="userSpaceOnUse"
       id="clipPath640">
      <path
         d="m 188,508.9 h 236.4 v 51.8 H 188 Z"
         clip-rule="evenodd"
         id="path640" />
    </clipPath>
    <clipPath
       clipPathUnits="userSpaceOnUse"
       id="clipPath642">
      <path
         d="m 188,508.9 h 236.4 v 51.8 H 188 Z"
         transform="matrix(1,0,0,-0.99858999,-258.80003,516.27102)"
         clip-rule="evenodd"
         id="path642" />
    </clipPath>
    <clipPath
       clipPathUnits="userSpaceOnUse"
       id="clipPath644">
      <path
         d="m 188,508.9 h 236.4 v 51.8 H 188 Z"
         clip-rule="evenodd"
         id="path644" />
    </clipPath>
    <clipPath
       clipPathUnits="userSpaceOnUse"
       id="clipPath646">
      <path
         d="m 188,508.9 h 236.4 v 51.8 H 188 Z"
         transform="matrix(1,0,0,-0.99858999,-288.80003,516.27102)"
         clip-rule="evenodd"
         id="path646" />
    </clipPath>
    <clipPath
       clipPathUnits="userSpaceOnUse"
       id="clipPath648">
      <path
         d="m 188,508.9 h 236.4 v 51.8 H 188 Z"
         clip-rule="evenodd"
         id="path648" />
    </clipPath>
    <clipPath
       clipPathUnits="userSpaceOnUse"
       id="clipPath650">
      <path
         d="m 188,508.9 h 236.4 v 51.8 H 188 Z"
         clip-rule="evenodd"
         id="path650" />
    </clipPath>
    <clipPath
       clipPathUnits="userSpaceOnUse"
       id="clipPath652">
      <path
         d="m 188,508.9 h 236.4 v 51.8 H 188 Z"
         clip-rule="evenodd"
         id="path652" />
    </clipPath>
    <clipPath
       clipPathUnits="userSpaceOnUse"
       id="clipPath654">
      <path
         d="m 188,508.9 h 236.4 v 51.8 H 188 Z"
         transform="matrix(1,0,0,-0.99858999,-332.00003,549.22449)"
         clip-rule="evenodd"
         id="path654" />
    </clipPath>
    <clipPath
       clipPathUnits="userSpaceOnUse"
       id="clipPath656">
      <path
         d="m 188,508.9 h 236.4 v 51.8 H 188 Z"
         clip-rule="evenodd"
         id="path656" />
    </clipPath>
    <clipPath
       clipPathUnits="userSpaceOnUse"
       id="clipPath658">
      <path
         d="m 188,508.9 h 236.4 v 51.8 H 188 Z"
         transform="matrix(1,0,0,-0.99858999,-343.89998,533.64649)"
         clip-rule="evenodd"
         id="path658" />
    </clipPath>
    <clipPath
       clipPathUnits="userSpaceOnUse"
       id="clipPath660">
      <path
         d="m 188,508.9 h 236.4 v 51.8 H 188 Z"
         clip-rule="evenodd"
         id="path660" />
    </clipPath>
    <clipPath
       clipPathUnits="userSpaceOnUse"
       id="clipPath662">
      <path
         d="m 188,508.9 h 236.4 v 51.8 H 188 Z"
         transform="matrix(1,0,0,-0.99858999,-393.69998,533.64649)"
         clip-rule="evenodd"
         id="path662" />
    </clipPath>
    <clipPath
       clipPathUnits="userSpaceOnUse"
       id="clipPath664">
      <path
         d="m 188,508.9 h 236.4 v 51.8 H 188 Z"
         clip-rule="evenodd"
         id="path664" />
    </clipPath>
    <clipPath
       clipPathUnits="userSpaceOnUse"
       id="clipPath666">
      <path
         d="m 188,508.9 h 236.4 v 51.8 H 188 Z"
         transform="matrix(1,0,0,-0.99858999,-345.09998,516.27102)"
         clip-rule="evenodd"
         id="path666" />
    </clipPath>
    <clipPath
       clipPathUnits="userSpaceOnUse"
       id="clipPath668">
      <path
         d="m 188,508.9 h 236.4 v 51.8 H 188 Z"
         clip-rule="evenodd"
         id="path668" />
    </clipPath>
    <clipPath
       clipPathUnits="userSpaceOnUse"
       id="clipPath670">
      <path
         d="m 188,508.9 h 236.4 v 51.8 H 188 Z"
         transform="matrix(1,0,0,-0.99858999,-373.89998,516.27102)"
         clip-rule="evenodd"
         id="path670" />
    </clipPath>
    <clipPath
       clipPathUnits="userSpaceOnUse"
       id="clipPath672">
      <path
         d="m 188,508.9 h 236.4 v 51.8 H 188 Z"
         clip-rule="evenodd"
         id="path672" />
    </clipPath>
    <clipPath
       clipPathUnits="userSpaceOnUse"
       id="clipPath674">
      <path
         d="m 188,508.9 h 236.4 v 51.8 H 188 Z"
         transform="matrix(1,0,0,-0.99858999,-403.89999,516.27102)"
         clip-rule="evenodd"
         id="path674" />
    </clipPath>
    <clipPath
       clipPathUnits="userSpaceOnUse"
       id="clipPath676">
      <path
         d="m 188,508.9 h 236.4 v 51.8 H 188 Z"
         clip-rule="evenodd"
         id="path676" />
    </clipPath>
    <clipPath
       clipPathUnits="userSpaceOnUse"
       id="clipPath678">
      <path
         d="m 188,508.9 h 236.4 v 51.8 H 188 Z"
         clip-rule="evenodd"
         id="path678" />
    </clipPath>
    <clipPath
       clipPathUnits="userSpaceOnUse"
       id="clipPath966">
      <path
         d="m 250.6,171 h 111.1 v 66.3 H 250.6 Z"
         clip-rule="evenodd"
         id="path966" />
    </clipPath>
    <clipPath
       clipPathUnits="userSpaceOnUse"
       id="clipPath968">
      <path
         d="m 250.6,171 h 111.1 v 66.3 H 250.6 Z"
         transform="matrix(1,0,0,-1.00467,-278.30003,229.36616)"
         clip-rule="evenodd"
         id="path968" />
    </clipPath>
    <clipPath
       clipPathUnits="userSpaceOnUse"
       id="clipPath970">
      <path
         d="m 250.6,171 h 111.1 v 66.3 H 250.6 Z"
         clip-rule="evenodd"
         id="path970" />
    </clipPath>
    <clipPath
       clipPathUnits="userSpaceOnUse"
       id="clipPath972">
      <path
         d="m 250.6,171 h 111.1 v 66.3 H 250.6 Z"
         transform="matrix(1,0,0,-1.00467,-289.29998,196.91532)"
         clip-rule="evenodd"
         id="path972" />
    </clipPath>
    <clipPath
       clipPathUnits="userSpaceOnUse"
       id="clipPath974">
      <path
         d="m 250.6,171 h 111.1 v 66.3 H 250.6 Z"
         clip-rule="evenodd"
         id="path974" />
    </clipPath>
    <clipPath
       clipPathUnits="userSpaceOnUse"
       id="clipPath976">
      <path
         d="m 250.6,171 h 111.1 v 66.3 H 250.6 Z"
         transform="matrix(1,0,0,-1.00467,-289.29998,180.2378)"
         clip-rule="evenodd"
         id="path976" />
    </clipPath>
    <clipPath
       clipPathUnits="userSpaceOnUse"
       id="clipPath978">
      <path
         d="m 250.6,171 h 111.1 v 66.3 H 250.6 Z"
         clip-rule="evenodd"
         id="path978" />
    </clipPath>
    <clipPath
       clipPathUnits="userSpaceOnUse"
       id="clipPath980">
      <path
         d="m 250.6,171 h 111.1 v 66.3 H 250.6 Z"
         transform="matrix(1,0,0,-1.00467,-289.29998,213.69331)"
         clip-rule="evenodd"
         id="path980" />
    </clipPath>
    <clipPath
       clipPathUnits="userSpaceOnUse"
       id="clipPath982">
      <path
         d="m 250.6,171 h 111.1 v 66.3 H 250.6 Z"
         clip-rule="evenodd"
         id="path982" />
    </clipPath>
    <clipPath
       clipPathUnits="userSpaceOnUse"
       id="clipPath984">
      <path
         d="m 250.6,171 h 111.1 v 66.3 H 250.6 Z"
         transform="matrix(1,0,0,-1.00467,-314.19998,213.69331)"
         clip-rule="evenodd"
         id="path984" />
    </clipPath>
    <clipPath
       clipPathUnits="userSpaceOnUse"
       id="clipPath986">
      <path
         d="m 250.6,171 h 111.1 v 66.3 H 250.6 Z"
         clip-rule="evenodd"
         id="path986" />
    </clipPath>
    <clipPath
       clipPathUnits="userSpaceOnUse"
       id="clipPath988">
      <path
         d="m 250.6,171 h 111.1 v 66.3 H 250.6 Z"
         transform="matrix(1,0,0,-1.00467,-317.10001,196.91532)"
         clip-rule="evenodd"
         id="path988" />
    </clipPath>
    <clipPath
       clipPathUnits="userSpaceOnUse"
       id="clipPath990">
      <path
         d="m 250.6,171 h 111.1 v 66.3 H 250.6 Z"
         clip-rule="evenodd"
         id="path990" />
    </clipPath>
    <clipPath
       clipPathUnits="userSpaceOnUse"
       id="clipPath992">
      <path
         d="m 250.6,171 h 111.1 v 66.3 H 250.6 Z"
         clip-rule="evenodd"
         id="path992" />
    </clipPath>
    <clipPath
       clipPathUnits="userSpaceOnUse"
       id="clipPath994">
      <path
         d="m 250.6,171 h 111.1 v 66.3 H 250.6 Z"
         clip-rule="evenodd"
         id="path994" />
    </clipPath>
    <clipPath
       clipPathUnits="userSpaceOnUse"
       id="clipPath996">
      <path
         d="m 250.6,171 h 111.1 v 66.3 H 250.6 Z"
         clip-rule="evenodd"
         id="path996" />
    </clipPath>
    <clipPath
       clipPathUnits="userSpaceOnUse"
       id="clipPath998">
      <path
         d="m 250.6,171 h 111.1 v 66.3 H 250.6 Z"
         clip-rule="evenodd"
         id="path998" />
    </clipPath>
    <clipPath
       clipPathUnits="userSpaceOnUse"
       id="clipPath1000">
      <path
         d="m 250.6,171 h 111.1 v 66.3 H 250.6 Z"
         clip-rule="evenodd"
         id="path1000" />
    </clipPath>
    <clipPath
       clipPathUnits="userSpaceOnUse"
       id="clipPath1002">
      <path
         d="m 250.6,171 h 111.1 v 66.3 H 250.6 Z"
         clip-rule="evenodd"
         id="path1002" />
    </clipPath>
    <clipPath
       clipPathUnits="userSpaceOnUse"
       id="clipPath1004">
      <path
         d="m 250.6,171 h 111.1 v 66.3 H 250.6 Z"
         clip-rule="evenodd"
         id="path1004" />
    </clipPath>
    <clipPath
       clipPathUnits="userSpaceOnUse"
       id="clipPath1006">
      <path
         d="m 250.6,171 h 111.1 v 66.3 H 250.6 Z"
         clip-rule="evenodd"
         id="path1006" />
    </clipPath>
    <clipPath
       clipPathUnits="userSpaceOnUse"
       id="clipPath1008">
      <path
         d="m 250.6,171 h 111.1 v 66.3 H 250.6 Z"
         clip-rule="evenodd"
         id="path1008" />
    </clipPath>
  </defs>
  <g
     inkscape:label="Слой 1"
     inkscape:groupmode="layer"
     id="layer1">
    <path
       id="path965"
       d="m 303.3,171 h -30.5 v 66.3 h 61 V 171 Z"
       style="fill:#ffffff;fill-opacity:1;fill-rule:evenodd;stroke:#000000;stroke-width:1;stroke-linecap:butt;stroke-linejoin:round;stroke-miterlimit:10;stroke-dasharray:none;stroke-opacity:1"
       transform="matrix(0.35277776,0,0,-0.35277776,-71.076698,96.004652)"
       clip-path="url(#clipPath966)" />
    <path
       id="path967"
       d="M 1.7927734,0.00117735 V -4.3785559 H 0.16386719 V -4.9672298 H 4.1013672 v 0.5886739 h -1.640625 v 4.37973325 z m 2.5546875,0 V -3.589733 h 0.5507813 v 0.5415799 c 0.140625,-0.2590165 0.2695312,-0.4267885 0.3867187,-0.5062595 0.1230469,-0.076528 0.2578125,-0.1177347 0.3984375,-0.1177347 0.2021485,0 0.4101563,0.064754 0.6210938,0.1883756 l -0.2109375,0.5651269 c -0.1494141,-0.085358 -0.2988281,-0.1295083 -0.4453125,-0.1295083 -0.1347656,0 -0.2548828,0.044151 -0.3632813,0.1295083 -0.102539,0.079471 -0.1757812,0.1883756 -0.2226562,0.3296573 -0.070312,0.2119226 -0.1054688,0.4473921 -0.1054688,0.7064086 v 1.88375625 z m 4.6582032,-0.44739211 c -0.2285157,0.19720573 -0.4453125,0.33554408 -0.65625,0.41207168 -0.2050782,0.0765276 -0.4277344,0.11773476 -0.6679688,0.11773476 -0.3925781,0 -0.6972656,-0.09418781 -0.9140625,-0.28256343 -0.2109375,-0.19426237 -0.3164062,-0.44739211 -0.3164062,-0.7535025 0,-0.17071545 0.038086,-0.32965735 0.1171875,-0.47093905 0.084961,-0.1471685 0.1904296,-0.2649032 0.3164062,-0.3532043 0.1318359,-0.085358 0.28125,-0.1530552 0.4453125,-0.2001491 0.1171875,-0.029434 0.2958984,-0.061811 0.5390625,-0.094188 0.4921875,-0.052981 0.8554688,-0.1236215 1.0898438,-0.2119226 0,-0.076528 0,-0.1295082 0,-0.1530552 0,-0.2501864 -0.055664,-0.4267885 -0.1640625,-0.5298064 -0.1582032,-0.1324517 -0.3925782,-0.2001491 -0.703125,-0.2001491 -0.28125,0 -0.4921875,0.052981 -0.6328125,0.1530551 -0.1347657,0.094188 -0.234375,0.27079 -0.3046875,0.5298065 L 6.5564453,-2.5654405 C 6.6091797,-2.824457 6.7,-3.0304929 6.8259766,-3.1894348 c 0.1230468,-0.1559986 0.3046875,-0.2737333 0.5390625,-0.3532043 0.234375,-0.085358 0.5068359,-0.1295082 0.8203125,-0.1295082 0.3046875,0 0.5507812,0.03532 0.7382812,0.1059612 0.1933594,0.070641 0.3339844,0.1618854 0.421875,0.27079 0.09375,0.111848 0.1582031,0.247243 0.1992188,0.4120717 0.023437,0.1030179 0.035156,0.2913935 0.035156,0.5651269 v 0.8123698 c 0,0.56512692 0.011719,0.92421796 0.035156,1.07138641 0.023437,0.15011183 0.073242,0.29433692 0.1523437,0.43561864 H 9.1345703 C 9.0701172,-0.12244416 9.0291016,-0.27255598 9.0056641,-0.44621476 Z M 8.9587891,-1.8001646 c -0.2197266,0.088301 -0.5507813,0.1618853 -0.9960938,0.2236961 -0.2519531,0.041207 -0.4306641,0.082414 -0.5390625,0.1295082 -0.1025391,0.041207 -0.1816406,0.1059613 -0.234375,0.2001491 -0.055664,0.088301 -0.082031,0.1824889 -0.082031,0.28256347 0,0.16482867 0.058594,0.30316702 0.1757812,0.41207168 0.1230469,0.10301792 0.3076172,0.15305519 0.5507813,0.15305519 0.234375,0 0.4394531,-0.0500373 0.6210937,-0.15305519 0.1875,-0.10007455 0.3222656,-0.24135627 0.4101563,-0.42384516 0.061523,-0.13245159 0.09375,-0.33260069 0.09375,-0.60044729 z M 10.564258,0.00117735 V -3.589733 h 0.550781 v 0.5062595 c 0.263672,-0.3914681 0.647461,-0.5886738 1.148438,-0.5886738 0.210937,0 0.404296,0.041207 0.585937,0.1177347 0.1875,0.079471 0.322266,0.1824889 0.410156,0.3061104 0.09375,0.1265649 0.158203,0.2766767 0.199219,0.4473921 0.01465,0.1118481 0.02344,0.3061104 0.02344,0.5886739 V 0.00117735 H 12.872852 V -2.1886893 c 0,-0.2413563 -0.02344,-0.4267885 -0.07031,-0.5533534 -0.04687,-0.1236215 -0.134766,-0.223696 -0.257812,-0.2943369 -0.117188,-0.070641 -0.254883,-0.1059613 -0.410157,-0.1059613 -0.266601,0 -0.492187,0.082414 -0.679687,0.247243 -0.1875,0.1648287 -0.28125,0.4768258 -0.28125,0.9301047 v 1.96617055 z m 3.65625,-1.07138635 0.609375,-0.094188 c 0.0293,0.24429961 0.123047,0.42973186 0.28125,0.55335337 0.155273,0.12656487 0.36914,0.18837562 0.644531,0.18837562 0.28125,0 0.486328,-0.0529806 0.621094,-0.16482867 0.140625,-0.11773477 0.210937,-0.25018638 0.210937,-0.4002982 0,-0.14128172 -0.06445,-0.25018642 -0.1875,-0.32965732 -0.0791,-0.052981 -0.287109,-0.1206782 -0.621093,-0.2001491 -0.445313,-0.1177348 -0.75586,-0.214866 -0.925782,-0.2943369 -0.172851,-0.085358 -0.304687,-0.2001491 -0.398437,-0.3414309 -0.08789,-0.1471684 -0.128906,-0.3090537 -0.128906,-0.4827125 0,-0.1648287 0.03516,-0.3119971 0.105468,-0.4473921 0.07617,-0.1412817 0.178711,-0.2531298 0.304688,-0.3414308 0.09375,-0.070641 0.222656,-0.1295083 0.386719,-0.1766022 0.164062,-0.047094 0.339843,-0.070641 0.527343,-0.070641 0.28125,0 0.527344,0.041207 0.738282,0.1177347 0.216796,0.079471 0.377929,0.1883757 0.480468,0.3296574 0.09961,0.1412817 0.169922,0.3267139 0.210938,0.5533534 l -0.597656,0.082414 C 16.45,-2.768533 16.367969,-2.9098147 16.236133,-3.0128327 16.110156,-3.1217373 15.931445,-3.1776613 15.69707,-3.1776613 c -0.28125,0 -0.486328,0.047094 -0.609375,0.1412817 -0.117187,0.094188 -0.175781,0.2060358 -0.175781,0.3296573 0,0.079471 0.02637,0.1501119 0.08203,0.2119226 0.04687,0.064754 0.120117,0.1177348 0.222657,0.1648287 0.06152,0.01766 0.240234,0.067697 0.539062,0.1530552 0.436523,0.111848 0.738281,0.2060358 0.902344,0.2825634 0.169922,0.070641 0.304687,0.1766022 0.398437,0.3178839 0.09961,0.1412817 0.152344,0.3149405 0.152344,0.518033 0,0.2060358 -0.05859,0.39735479 -0.175781,0.57690031 -0.117188,0.18248889 -0.290039,0.3237706 -0.515625,0.42384515 -0.219727,0.09418782 -0.47461,0.14128172 -0.761719,0.14128172 -0.462891,0 -0.817383,-0.09713118 -1.066406,-0.29433691 -0.243164,-0.19426236 -0.398438,-0.48271254 -0.46875,-0.85946377 z m 6.09082,0.62399424 c -0.228516,0.19720573 -0.445312,0.33554408 -0.65625,0.41207168 -0.205078,0.0765276 -0.427734,0.11773476 -0.667969,0.11773476 -0.392578,0 -0.697265,-0.09418781 -0.914062,-0.28256343 -0.210938,-0.19426237 -0.316406,-0.44739211 -0.316406,-0.7535025 0,-0.17071545 0.03809,-0.32965735 0.117187,-0.47093905 0.08496,-0.1471685 0.19043,-0.2649032 0.316406,-0.3532043 0.131836,-0.085358 0.28125,-0.1530552 0.445313,-0.2001491 0.117187,-0.029434 0.295898,-0.061811 0.539062,-0.094188 0.492188,-0.052981 0.855469,-0.1236215 1.089844,-0.2119226 0,-0.076528 0,-0.1295082 0,-0.1530552 0,-0.2501864 -0.05566,-0.4267885 -0.164062,-0.5298064 -0.158204,-0.1324517 -0.392579,-0.2001491 -0.703125,-0.2001491 -0.28125,0 -0.492188,0.052981 -0.632813,0.1530551 -0.134766,0.094188 -0.234375,0.27079 -0.304687,0.5298065 l -0.597657,-0.082414 c 0.05273,-0.2590165 0.143555,-0.4650524 0.269532,-0.6239943 0.123046,-0.1559986 0.304687,-0.2737333 0.539062,-0.3532043 0.234375,-0.085358 0.506836,-0.1295082 0.820313,-0.1295082 0.304687,0 0.550781,0.03532 0.738281,0.1059612 0.193359,0.070641 0.333984,0.1618854 0.421875,0.27079 0.09375,0.111848 0.158203,0.247243 0.199219,0.4120717 0.02344,0.1030179 0.03516,0.2913935 0.03516,0.5651269 v 0.8123698 c 0,0.56512692 0.01172,0.92421796 0.03516,1.07138641 0.02344,0.15011183 0.07324,0.29433692 0.152344,0.43561864 h -0.632813 c -0.06445,-0.12362151 -0.105468,-0.27373333 -0.128906,-0.44739211 z m -0.04687,-1.35394984 c -0.219726,0.088301 -0.550781,0.1618853 -0.996094,0.2236961 -0.251953,0.041207 -0.430664,0.082414 -0.539062,0.1295082 -0.102539,0.041207 -0.181641,0.1059613 -0.234375,0.2001491 -0.05566,0.088301 -0.08203,0.1824889 -0.08203,0.28256347 0,0.16482867 0.05859,0.30316702 0.175781,0.41207168 0.123047,0.10301792 0.307617,0.15305519 0.550781,0.15305519 0.234375,0 0.439453,-0.0500373 0.621094,-0.15305519 0.1875,-0.10007455 0.322265,-0.24135627 0.410156,-0.42384516 0.06152,-0.13245159 0.09375,-0.33260069 0.09375,-0.60044729 z m 3.949219,0.4827126 0.609375,0.082414 c -0.07031,0.40912832 -0.243164,0.72995556 -0.515625,0.96542509 -0.266602,0.23546953 -0.594727,0.35320429 -0.984375,0.35320429 -0.492188,0 -0.890625,-0.15894193 -1.195313,-0.48271254 -0.298828,-0.32082723 -0.445312,-0.78293614 -0.445312,-1.38927024 0,-0.382638 0.06152,-0.7211254 0.1875,-1.012519 0.131836,-0.2884502 0.328125,-0.5062595 0.585937,-0.6475412 0.263672,-0.1471684 0.553711,-0.223696 0.867188,-0.223696 0.389648,0 0.708984,0.1000745 0.960937,0.2943369 0.249024,0.1972057 0.410157,0.4768258 0.480469,0.8359168 l -0.597656,0.094188 c -0.05566,-0.2413562 -0.158203,-0.4238451 -0.304688,-0.5415799 -0.140625,-0.1236215 -0.313476,-0.1883756 -0.515625,-0.1883756 -0.304687,0 -0.55664,0.111848 -0.75,0.3296573 -0.1875,0.2207527 -0.28125,0.5710136 -0.28125,1.0478394 0,0.4885993 0.08789,0.84180361 0.269532,1.05961292 0.1875,0.21192258 0.427734,0.31788387 0.726562,0.31788387 0.240234,0 0.439453,-0.0706409 0.597656,-0.21192258 0.164063,-0.14716845 0.263672,-0.37675121 0.304688,-0.68286151 z m 2.493164,0.77704943 0.08203,0.52980644 c -0.172851,0.0382638 -0.325195,0.05886738 -0.457031,0.05886738 -0.219727,0 -0.392578,-0.03532043 -0.515625,-0.10596129 -0.125977,-0.07064085 -0.210938,-0.15894193 -0.257813,-0.27078996 -0.04687,-0.11773476 -0.07031,-0.35614766 -0.07031,-0.7181821 V -3.1187939 H 25.031055 V -3.589733 h 0.457031 v -0.8947842 l 0.597656,-0.3649778 v 1.259762 h 0.621094 v 0.4709391 h -0.621094 v 2.0956788 c 0,0.18248887 0.01172,0.2943369 0.03516,0.34143081 0.02344,0.0470939 0.05859,0.0883011 0.105469,0.11773476 0.04687,0.0323771 0.117188,0.0470939 0.210938,0.0470939 0.06152,0 0.152343,-0.005887 0.269531,-0.023547 z M 27.37481,-4.2608212 v -0.7064086 h 0.609375 v 0.7064086 z m 0,4.26199855 V -3.589733 h 0.609375 v 3.59091035 z m 1.274414,-1.80134195 c 0,-0.6652014 0.18164,-1.156744 0.550781,-1.4716845 0.310547,-0.2649033 0.691406,-0.4002982 1.136719,-0.4002982 0.492187,0 0.893554,0.1618853 1.207031,0.4827125 0.310547,0.3237706 0.46875,0.7711627 0.46875,1.3421763 0,0.4650524 -0.07031,0.8300301 -0.210938,1.09493335 -0.134765,0.26784659 -0.333984,0.4768258 -0.597656,0.62399426 -0.266601,0.14128171 -0.55664,0.21192257 -0.867187,0.21192257 -0.509766,0 -0.919922,-0.15894193 -1.230469,-0.48271254 -0.304688,-0.32082723 -0.457031,-0.78882294 -0.457031,-1.40104374 z m 0.621093,0 c 0,0.4650524 0.09961,0.80942655 0.304688,1.03606597 0.202148,0.22958279 0.457031,0.34143082 0.761719,0.34143082 0.295898,0 0.544922,-0.11184803 0.75,-0.34143082 0.202148,-0.22663942 0.304687,-0.57690037 0.304687,-1.04783937 0,-0.4473922 -0.102539,-0.7829362 -0.304687,-1.012519 -0.205078,-0.2266395 -0.454102,-0.3414308 -0.75,-0.3414308 -0.304688,0 -0.559571,0.1147913 -0.761719,0.3414308 -0.205078,0.2295828 -0.304688,0.5710136 -0.304688,1.0242924 z m 3.503907,1.80134195 V -3.589733 H 33.325 v 0.5062595 c 0.263672,-0.3914681 0.647461,-0.5886738 1.148437,-0.5886738 0.210938,0 0.404297,0.041207 0.585938,0.1177347 0.1875,0.079471 0.322266,0.1824889 0.410156,0.3061104 0.09375,0.1265649 0.158203,0.2766767 0.199219,0.4473921 0.01465,0.1118481 0.02344,0.3061104 0.02344,0.5886739 V 0.00117735 H 35.082812 V -2.1886893 c 0,-0.2413563 -0.02344,-0.4267885 -0.07031,-0.5533534 -0.04687,-0.1236215 -0.134766,-0.223696 -0.257813,-0.2943369 -0.117187,-0.070641 -0.254882,-0.1059613 -0.410156,-0.1059613 -0.266601,0 -0.492187,0.082414 -0.679687,0.247243 -0.1875,0.1648287 -0.28125,0.4768258 -0.28125,0.9301047 v 1.96617055 z m 0,0"
       style="fill:#000000;fill-opacity:1;fill-rule:nonzero;stroke:none"
       aria-label="Transaction"
       transform="matrix(0.35277776,0,0,0.35113796,27.101365,15.465487)"
       clip-path="url(#clipPath968)" />
    <path
       id="path969"
       d="m 292.2,193.1 h -8.3 v 11.1 h 16.6 v -11.1 z"
       style="fill:#ffffff;fill-opacity:1;fill-rule:evenodd;stroke:#000000;stroke-width:1;stroke-linecap:butt;stroke-linejoin:round;stroke-miterlimit:10;stroke-dasharray:none;stroke-opacity:1"
       transform="matrix(0.35277776,0,0,-0.35277776,-71.076698,96.004652)"
       clip-path="url(#clipPath970)" />
    <path
       id="path971"
       d="M 0.6453125,9.8112305e-4 V -4.967426 h 0.65625 V 9.8112305e-4 Z m 1.8164062,0 V -3.5899292 H 3.0125 v 0.5062595 c 0.2636719,-0.3914681 0.6474609,-0.5886739 1.1484375,-0.5886739 0.2109375,0 0.4042969,0.041207 0.5859375,0.1177348 0.1875,0.079471 0.3222656,0.1824889 0.4101562,0.3061104 0.09375,0.1265649 0.1582032,0.2766767 0.1992188,0.4473921 0.014648,0.111848 0.023437,0.3061104 0.023437,0.5886738 V 9.8112305e-4 H 4.7703125 V -2.1888855 C 4.7703125,-2.4302418 4.746875,-2.615674 4.7,-2.7422389 4.653125,-2.8658604 4.5652344,-2.965935 4.4421875,-3.0365758 4.325,-3.1072167 4.1873047,-3.1425371 4.0320312,-3.1425371 c -0.2666015,0 -0.4921875,0.082414 -0.6796875,0.247243 -0.1875,0.1648287 -0.28125,0.4768258 -0.28125,0.9301046 V 9.8112305e-4 Z m 0,0"
       style="fill:#000000;fill-opacity:1;fill-rule:nonzero;stroke:none"
       aria-label="In"
       transform="matrix(0.35277776,0,0,0.35113796,30.981903,26.86021)"
       clip-path="url(#clipPath972)" />
    <path
       id="path973"
       d="m 292.2,176.5 h -8.3 v 11.1 h 16.6 v -11.1 z"
       style="fill:#ffffff;fill-opacity:1;fill-rule:evenodd;stroke:#000000;stroke-width:1;stroke-linecap:butt;stroke-linejoin:round;stroke-miterlimit:10;stroke-dasharray:none;stroke-opacity:1"
       transform="matrix(0.35277776,0,0,-0.35277776,-71.076698,96.004652)"
       clip-path="url(#clipPath974)" />
    <path
       id="path975"
       d="M 0.63359375,5.8867383e-4 V -0.69404644 H 1.325 V 5.8867383e-4 Z m 2.00390625,0 V -0.69404644 H 3.3289062 V 5.8867383e-4 Z m 1.8984375,0 V -0.69404644 H 5.2273437 V 5.8867383e-4 Z m 0,0"
       style="fill:#000000;fill-opacity:1;fill-rule:nonzero;stroke:none"
       aria-label="..."
       transform="matrix(0.35277776,0,0,0.35113796,30.981903,32.71632)"
       clip-path="url(#clipPath976)" />
    <path
       id="path977"
       d="m 292.2,209.7 h -8.3 v 11 h 16.6 v -11 z"
       style="fill:#ffffff;fill-opacity:1;fill-rule:evenodd;stroke:#000000;stroke-width:1;stroke-linecap:butt;stroke-linejoin:round;stroke-miterlimit:10;stroke-dasharray:none;stroke-opacity:1"
       transform="matrix(0.35277776,0,0,-0.35277776,-71.076698,96.004652)"
       clip-path="url(#clipPath978)" />
    <path
       id="path979"
       d="M 0.6453125,-0.00117735 V -4.9695845 h 0.65625 v 4.96840715 z m 1.8164062,0 V -3.5920877 H 3.0125 v 0.5062595 c 0.2636719,-0.3914681 0.6474609,-0.5886738 1.1484375,-0.5886738 0.2109375,0 0.4042969,0.041207 0.5859375,0.1177347 0.1875,0.079471 0.3222656,0.1824889 0.4101562,0.3061104 0.09375,0.1265649 0.1582032,0.2766767 0.1992188,0.4473921 0.014648,0.1118481 0.023437,0.3061104 0.023437,0.5886739 v 2.21341355 H 4.7703125 V -2.191044 C 4.7703125,-2.4324003 4.746875,-2.6178325 4.7,-2.7443974 4.653125,-2.8680189 4.5652344,-2.9680934 4.4421875,-3.0387343 4.325,-3.1093752 4.1873047,-3.1446956 4.0320312,-3.1446956 c -0.2666015,0 -0.4921875,0.082414 -0.6796875,0.247243 -0.1875,0.1648287 -0.28125,0.4768258 -0.28125,0.9301047 v 1.96617055 z m 0,0"
       style="fill:#000000;fill-opacity:1;fill-rule:nonzero;stroke:none"
       aria-label="In"
       transform="matrix(0.35277776,0,0,0.35113796,30.981903,20.96882)"
       clip-path="url(#clipPath980)" />
    <path
       id="path981"
       d="m 320,209.7 h -8.4 v 11 h 16.7 v -11 z"
       style="fill:#ffffff;fill-opacity:1;fill-rule:evenodd;stroke:#000000;stroke-width:1;stroke-linecap:butt;stroke-linejoin:round;stroke-miterlimit:10;stroke-dasharray:none;stroke-opacity:1"
       transform="matrix(0.35277776,0,0,-0.35277776,-71.076698,96.004652)"
       clip-path="url(#clipPath982)" />
    <path
       id="path983"
       d="m 0.34003906,-2.41474 c 0,-0.8241434 0.21679688,-1.4657979 0.65625,-1.9308502 0.44531254,-0.4709391 1.01953124,-0.7064086 1.72265624,-0.7064086 0.4511719,0 0.8613281,0.111848 1.2304688,0.3296574 0.3662109,0.2207526 0.6474609,0.526863 0.84375,0.9183311 0.1933593,0.3855814 0.2929687,0.8300301 0.2929687,1.3304029 0,0.5033161 -0.102539,0.9536516 -0.3046875,1.3539498 -0.2050781,0.39441144 -0.4921875,0.69169173 -0.8671875,0.8947842 -0.375,0.20603584 -0.7792969,0.30611039 -1.2070312,0.30611039 -0.46875,0 -0.8876953,-0.10890466 -1.2539063,-0.32965735 C 1.0841797,-0.47505978 0.80878906,-0.78411354 0.62128906,-1.178525 c -0.1875,-0.3914681 -0.28125,-0.8035398 -0.28125,-1.236215 z m 0.66796874,0.011773 c 0,0.597504 0.1582031,1.068443 0.4804688,1.41281722 0.328125,0.33848745 0.7324218,0.50625949 1.21875,0.50625949 0.4921875,0 0.8964843,-0.17071541 1.21875,-0.51803301 0.3193359,-0.3443741 0.4804687,-0.8388602 0.4804687,-1.483458 0,-0.4002982 -0.070312,-0.7476158 -0.2109375,-1.0478394 C 4.0607422,-3.8393311 3.8615234,-4.0748006 3.5978516,-4.2396293 3.3400391,-4.404458 3.0470703,-4.4868723 2.7189453,-4.4868723 c -0.46875,0 -0.8730469,0.1618853 -1.2070312,0.4827125 C 1.175,-3.6892189 1.0080078,-3.1564691 1.0080078,-2.402967 Z m 7.1074219,2.40178925 v -0.52980644 c -0.28125,0.40912831 -0.6621094,0.61222078 -1.1367188,0.61222078 -0.2109375,0 -0.4101562,-0.04120717 -0.5976562,-0.11773477 -0.1816406,-0.0853577 -0.3164063,-0.18837562 -0.4101563,-0.30611039 -0.087891,-0.1236215 -0.149414,-0.2766767 -0.1875,-0.45916558 C 5.7599614,-0.91950892 5.7482424,-1.1078845 5.7482424,-1.366901 v -2.2251871 h 0.609375 v 1.9897175 c 0,0.3237706 0.011719,0.5386366 0.035156,0.64754125 0.038086,0.15894193 0.1201172,0.28256344 0.2460938,0.37675125 0.1230469,0.0883011 0.2753906,0.12950824 0.4570312,0.12950824 0.1875,0 0.3574219,-0.0470939 0.515625,-0.14128172 0.1640625,-0.0941878 0.2753907,-0.21780931 0.3398438,-0.37675125 C 8.0216797,-1.1314311 8.0568359,-1.3669006 8.0568359,-1.673011 v -1.9190767 h 0.609375 v 3.59091035 z m 2.8828123,-0.54157992 0.08203,0.52980645 c -0.172851,0.03826379 -0.325195,0.05886738 -0.457031,0.05886738 -0.219726,0 -0.392578,-0.03532043 -0.515625,-0.10596129 C 9.9816406,-0.13068559 9.8966797,-0.21898666 9.8498047,-0.33083469 9.8029297,-0.44856946 9.7794922,-0.68698236 9.7794922,-1.0490168 V -3.1211486 H 9.3224609 v -0.4709391 h 0.4570313 v -0.8947842 l 0.5976558,-0.3649778 v 1.259762 h 0.621094 v 0.4709391 h -0.621094 v 2.0956788 c 0,0.18248888 0.01172,0.29433691 0.03516,0.34143081 0.02344,0.0470939 0.05859,0.0883011 0.105468,0.11773477 0.04687,0.0323771 0.117188,0.0470939 0.210938,0.0470939 0.06152,0 0.152344,-0.005887 0.269531,-0.0235469 z m 0,0"
       style="fill:#000000;fill-opacity:1;fill-rule:nonzero;stroke:none"
       aria-label="Out"
       transform="matrix(0.35277776,0,0,0.35113796,39.766069,20.96882)"
       clip-path="url(#clipPath984)" />
    <path
       id="path985"
       d="m 320,193.1 h -8.4 v 11.1 h 16.7 v -11.1 z"
       style="fill:#ffffff;fill-opacity:1;fill-rule:evenodd;stroke:#000000;stroke-width:1;stroke-linecap:butt;stroke-linejoin:round;stroke-miterlimit:10;stroke-dasharray:none;stroke-opacity:1"
       transform="matrix(0.35277776,0,0,-0.35277776,-71.076698,96.004652)"
       clip-path="url(#clipPath986)" />
    <path
       id="path987"
       d="M 0.63339844,9.8112305e-4 V -0.69365399 H 1.3248047 V 9.8112305e-4 Z m 1.89843746,0 V -0.69365399 H 3.2232422 V 9.8112305e-4 Z m 2.0039063,0 V -0.69365399 H 5.2271484 V 9.8112305e-4 Z m 0,0"
       style="fill:#000000;fill-opacity:1;fill-rule:nonzero;stroke:none"
       aria-label="..."
       transform="matrix(0.35277776,0,0,0.35113796,40.789133,26.86021)"
       clip-path="url(#clipPath988)" />
    <path
       id="path989"
       d="m 283.9,215.2 -6.7,-2.2 v 4.4 z"
       style="fill:#000000;fill-opacity:1;fill-rule:evenodd;stroke:none"
       transform="matrix(0.35277776,0,0,-0.35277776,-71.076698,96.004652)"
       clip-path="url(#clipPath990)" />
    <path
       id="path991"
       d="m 250.6,215.2 h 28"
       style="fill:none;stroke:#000000;stroke-width:0.1;stroke-linecap:butt;stroke-linejoin:miter;stroke-miterlimit:10;stroke-dasharray:none;stroke-opacity:1"
       transform="matrix(0.35277776,0,0,-0.35277776,-71.076698,96.004652)"
       clip-path="url(#clipPath992)" />
    <path
       id="path993"
       d="m 283.9,198.6 -6.7,-2.2 v 4.4 z"
       style="fill:#000000;fill-opacity:1;fill-rule:evenodd;stroke:none"
       transform="matrix(0.35277776,0,0,-0.35277776,-71.076698,96.004652)"
       clip-path="url(#clipPath994)" />
    <path
       id="path995"
       d="m 250.6,198.6 h 28"
       style="fill:none;stroke:#000000;stroke-width:0.1;stroke-linecap:butt;stroke-linejoin:miter;stroke-miterlimit:10;stroke-dasharray:none;stroke-opacity:1"
       transform="matrix(0.35277776,0,0,-0.35277776,-71.076698,96.004652)"
       clip-path="url(#clipPath996)" />
    <path
       id="path997"
       d="m 283.9,182.1 -6.7,-2.2 v 4.4 z"
       style="fill:#000000;fill-opacity:1;fill-rule:evenodd;stroke:none"
       transform="matrix(0.35277776,0,0,-0.35277776,-71.076698,96.004652)"
       clip-path="url(#clipPath998)" />
    <path
       id="path999"
       d="m 250.6,182.1 h 28"
       style="fill:none;stroke:#000000;stroke-width:0.1;stroke-linecap:butt;stroke-linejoin:miter;stroke-miterlimit:10;stroke-dasharray:none;stroke-opacity:1"
       transform="matrix(0.35277776,0,0,-0.35277776,-71.076698,96.004652)"
       clip-path="url(#clipPath1000)" />
    <path
       id="path1001"
       d="m 361.6,215.2 -6.7,-2.2 v 4.4 z"
       style="fill:#000000;fill-opacity:1;fill-rule:evenodd;stroke:none"
       transform="matrix(0.35277776,0,0,-0.35277776,-71.076698,96.004652)"
       clip-path="url(#clipPath1002)" />
    <path
       id="path1003"
       d="m 328.3,215.2 h 27.9"
       style="fill:none;stroke:#000000;stroke-width:0.1;stroke-linecap:butt;stroke-linejoin:miter;stroke-miterlimit:10;stroke-dasharray:none;stroke-opacity:1"
       transform="matrix(0.35277776,0,0,-0.35277776,-71.076698,96.004652)"
       clip-path="url(#clipPath1004)" />
    <path
       id="path1005"
       d="m 361.6,198.6 -6.7,-2.2 v 4.4 z"
       style="fill:#000000;fill-opacity:1;fill-rule:evenodd;stroke:none"
       transform="matrix(0.35277776,0,0,-0.35277776,-71.076698,96.004652)"
       clip-path="url(#clipPath1006)" />
    <path
       id="path1007"
       d="m 328.3,198.6 h 27.9"
       style="fill:none;stroke:#000000;stroke-width:0.1;stroke-linecap:butt;stroke-linejoin:miter;stroke-miterlimit:10;stroke-dasharray:none;stroke-opacity:1"
       transform="matrix(0.35277776,0,0,-0.35277776,-71.076698,96.004652)"
       clip-path="url(#clipPath1008)" />
  </g>
</svg>
